<svg width="67" height="50" viewBox="0 0 67 50" fill="none" xmlns="http://www.w3.org/2000/svg">
<path d="M3.3 43.7L3.14 44.3H4.53L4.38 43.7C4.29333 43.3733 4.20333 43.0267 4.11 42.66C4.02333 42.2933 3.93667 41.94 3.85 41.6H3.81C3.73 41.9467 3.64667 42.3033 3.56 42.67C3.48 43.03 3.39333 43.3733 3.3 43.7ZM0.94 47L2.98 40.48H4.75L6.79 47H5.23L4.83 45.45H2.84L2.44 47H0.94ZM7.38242 47V42.04H8.58242L8.68242 42.67H8.72242C8.93576 42.47 9.16909 42.2967 9.42242 42.15C9.68242 41.9967 9.97909 41.92 10.3124 41.92C10.8524 41.92 11.2424 42.1 11.4824 42.46C11.7291 42.8133 11.8524 43.3 11.8524 43.92V47H10.3824V44.11C10.3824 43.75 10.3324 43.5033 10.2324 43.37C10.1391 43.2367 9.98576 43.17 9.77242 43.17C9.58576 43.17 9.42576 43.2133 9.29242 43.3C9.15909 43.38 9.01242 43.4967 8.85242 43.65V47H7.38242ZM14.8751 47.12C14.2617 47.12 13.7684 46.89 13.3951 46.43C13.0284 45.9633 12.8451 45.3267 12.8451 44.52C12.8451 43.98 12.9417 43.5167 13.1351 43.13C13.3351 42.7367 13.5917 42.4367 13.9051 42.23C14.2251 42.0233 14.5584 41.92 14.9051 41.92C15.1784 41.92 15.4084 41.9667 15.5951 42.06C15.7817 42.1533 15.9584 42.28 16.1251 42.44L16.0651 41.68V39.99H17.5351V47H16.3351L16.2351 46.51H16.1951C16.0217 46.6833 15.8184 46.83 15.5851 46.95C15.3517 47.0633 15.1151 47.12 14.8751 47.12ZM15.2551 45.92C15.4151 45.92 15.5584 45.8867 15.6851 45.82C15.8184 45.7533 15.9451 45.6367 16.0651 45.47V43.44C15.9384 43.32 15.8017 43.2367 15.6551 43.19C15.5151 43.1433 15.3784 43.12 15.2451 43.12C15.0117 43.12 14.8051 43.2333 14.6251 43.46C14.4451 43.68 14.3551 44.0267 14.3551 44.5C14.3551 44.9867 14.4317 45.3467 14.5851 45.58C14.7451 45.8067 14.9684 45.92 15.2551 45.92ZM18.8375 47V42.04H20.0375L20.1375 42.91H20.1775C20.3575 42.5767 20.5742 42.33 20.8275 42.17C21.0808 42.0033 21.3342 41.92 21.5875 41.92C21.7275 41.92 21.8442 41.93 21.9375 41.95C22.0308 41.9633 22.1108 41.9867 22.1775 42.02L21.9375 43.29C21.8508 43.2633 21.7642 43.2433 21.6775 43.23C21.5975 43.2167 21.5042 43.21 21.3975 43.21C21.2108 43.21 21.0142 43.28 20.8075 43.42C20.6075 43.5533 20.4408 43.7867 20.3075 44.12V47H18.8375ZM24.8542 47.12C24.4342 47.12 24.0376 47.02 23.6642 46.82C23.2976 46.6133 23.0009 46.3167 22.7742 45.93C22.5476 45.5367 22.4342 45.0667 22.4342 44.52C22.4342 43.9667 22.5476 43.4967 22.7742 43.11C23.0009 42.7233 23.2976 42.43 23.6642 42.23C24.0376 42.0233 24.4342 41.92 24.8542 41.92C25.2742 41.92 25.6676 42.0233 26.0342 42.23C26.4009 42.43 26.6976 42.7233 26.9242 43.11C27.1509 43.4967 27.2642 43.9667 27.2642 44.52C27.2642 45.0667 27.1509 45.5367 26.9242 45.93C26.6976 46.3167 26.4009 46.6133 26.0342 46.82C25.6676 47.02 25.2742 47.12 24.8542 47.12ZM24.8542 45.93C25.1542 45.93 25.3809 45.8033 25.5342 45.55C25.6876 45.29 25.7642 44.9467 25.7642 44.52C25.7642 44.0867 25.6876 43.7433 25.5342 43.49C25.3809 43.2367 25.1542 43.11 24.8542 43.11C24.5476 43.11 24.3176 43.2367 24.1642 43.49C24.0176 43.7433 23.9442 44.0867 23.9442 44.52C23.9442 44.9467 24.0176 45.29 24.1642 45.55C24.3176 45.8033 24.5476 45.93 24.8542 45.93ZM28.2711 47V42.04H29.7411V47H28.2711ZM29.0011 41.31C28.7544 41.31 28.5544 41.24 28.4011 41.1C28.2478 40.96 28.1711 40.7733 28.1711 40.54C28.1711 40.3067 28.2478 40.12 28.4011 39.98C28.5544 39.84 28.7544 39.77 29.0011 39.77C29.2478 39.77 29.4478 39.84 29.6011 39.98C29.7544 40.12 29.8311 40.3067 29.8311 40.54C29.8311 40.7733 29.7544 40.96 29.6011 41.1C29.4478 41.24 29.2478 41.31 29.0011 41.31ZM32.8048 47.12C32.1914 47.12 31.6981 46.89 31.3248 46.43C30.9581 45.9633 30.7748 45.3267 30.7748 44.52C30.7748 43.98 30.8714 43.5167 31.0648 43.13C31.2648 42.7367 31.5214 42.4367 31.8348 42.23C32.1548 42.0233 32.4881 41.92 32.8348 41.92C33.1081 41.92 33.3381 41.9667 33.5248 42.06C33.7114 42.1533 33.8881 42.28 34.0548 42.44L33.9948 41.68V39.99H35.4648V47H34.2648L34.1648 46.51H34.1248C33.9514 46.6833 33.7481 46.83 33.5148 46.95C33.2814 47.0633 33.0448 47.12 32.8048 47.12ZM33.1848 45.92C33.3448 45.92 33.4881 45.8867 33.6148 45.82C33.7481 45.7533 33.8748 45.6367 33.9948 45.47V43.44C33.8681 43.32 33.7314 43.2367 33.5848 43.19C33.4448 43.1433 33.3081 43.12 33.1748 43.12C32.9414 43.12 32.7348 43.2333 32.5548 43.46C32.3748 43.68 32.2848 44.0267 32.2848 44.5C32.2848 44.9867 32.3614 45.3467 32.5148 45.58C32.6748 45.8067 32.8981 45.92 33.1848 45.92ZM40.8791 47.12C40.4525 47.12 40.0258 47.04 39.5991 46.88C39.1791 46.72 38.8025 46.4867 38.4691 46.18L39.3091 45.17C39.5425 45.37 39.8025 45.5333 40.0891 45.66C40.3758 45.7867 40.6525 45.85 40.9191 45.85C41.2258 45.85 41.4525 45.7933 41.5991 45.68C41.7525 45.5667 41.8291 45.4133 41.8291 45.22C41.8291 45.0133 41.7425 44.8633 41.5691 44.77C41.4025 44.67 41.1758 44.56 40.8891 44.44L40.0391 44.08C39.8191 43.9867 39.6091 43.8633 39.4091 43.71C39.2091 43.55 39.0458 43.3533 38.9191 43.12C38.7925 42.8867 38.7291 42.6133 38.7291 42.3C38.7291 41.94 38.8258 41.6133 39.0191 41.32C39.2191 41.0267 39.4925 40.7933 39.8391 40.62C40.1925 40.4467 40.5958 40.36 41.0491 40.36C41.4225 40.36 41.7958 40.4333 42.1691 40.58C42.5425 40.7267 42.8691 40.94 43.1491 41.22L42.3991 42.15C42.1858 41.9833 41.9725 41.8567 41.7591 41.77C41.5458 41.6767 41.3091 41.63 41.0491 41.63C40.7958 41.63 40.5925 41.6833 40.4391 41.79C40.2925 41.89 40.2191 42.0333 40.2191 42.22C40.2191 42.42 40.3125 42.57 40.4991 42.67C40.6925 42.77 40.9291 42.8767 41.2091 42.99L42.0491 43.33C42.4425 43.49 42.7558 43.71 42.9891 43.99C43.2225 44.27 43.3391 44.64 43.3391 45.1C43.3391 45.46 43.2425 45.7933 43.0491 46.1C42.8558 46.4067 42.5758 46.6533 42.2091 46.84C41.8425 47.0267 41.3991 47.12 40.8791 47.12ZM45.9526 47.12C45.3392 47.12 44.8992 46.9433 44.6326 46.59C44.3726 46.2367 44.2426 45.7733 44.2426 45.2V43.19H43.5626V42.1L44.3226 42.04L44.4926 40.72H45.7126V42.04H46.9026V43.19H45.7126V45.18C45.7126 45.46 45.7692 45.6633 45.8826 45.79C46.0026 45.91 46.1592 45.97 46.3526 45.97C46.4326 45.97 46.5126 45.96 46.5926 45.94C46.6792 45.92 46.7559 45.8967 46.8226 45.87L47.0526 46.94C46.9259 46.98 46.7692 47.02 46.5826 47.06C46.4026 47.1 46.1926 47.12 45.9526 47.12ZM49.3607 47.12C48.8207 47.12 48.4274 46.9433 48.1807 46.59C47.9407 46.23 47.8207 45.74 47.8207 45.12V42.04H49.2907V44.93C49.2907 45.2833 49.3407 45.53 49.4407 45.67C49.5407 45.8033 49.6974 45.87 49.9107 45.87C50.0974 45.87 50.254 45.8267 50.3807 45.74C50.5074 45.6533 50.644 45.5133 50.7907 45.32V42.04H52.2607V47H51.0607L50.9507 46.31H50.9207C50.714 46.5567 50.4874 46.7533 50.2407 46.9C49.994 47.0467 49.7007 47.12 49.3607 47.12ZM55.3243 47.12C54.711 47.12 54.2176 46.89 53.8443 46.43C53.4776 45.9633 53.2943 45.3267 53.2943 44.52C53.2943 43.98 53.391 43.5167 53.5843 43.13C53.7843 42.7367 54.041 42.4367 54.3543 42.23C54.6743 42.0233 55.0076 41.92 55.3543 41.92C55.6276 41.92 55.8576 41.9667 56.0443 42.06C56.231 42.1533 56.4076 42.28 56.5743 42.44L56.5143 41.68V39.99H57.9843V47H56.7843L56.6843 46.51H56.6443C56.471 46.6833 56.2676 46.83 56.0343 46.95C55.801 47.0633 55.5643 47.12 55.3243 47.12ZM55.7043 45.92C55.8643 45.92 56.0076 45.8867 56.1343 45.82C56.2676 45.7533 56.3943 45.6367 56.5143 45.47V43.44C56.3876 43.32 56.251 43.2367 56.1043 43.19C55.9643 43.1433 55.8276 43.12 55.6943 43.12C55.461 43.12 55.2543 43.2333 55.0743 43.46C54.8943 43.68 54.8043 44.0267 54.8043 44.5C54.8043 44.9867 54.881 45.3467 55.0343 45.58C55.1943 45.8067 55.4176 45.92 55.7043 45.92ZM59.2867 47V42.04H60.7567V47H59.2867ZM60.0167 41.31C59.7701 41.31 59.5701 41.24 59.4167 41.1C59.2634 40.96 59.1867 40.7733 59.1867 40.54C59.1867 40.3067 59.2634 40.12 59.4167 39.98C59.5701 39.84 59.7701 39.77 60.0167 39.77C60.2634 39.77 60.4634 39.84 60.6167 39.98C60.7701 40.12 60.8467 40.3067 60.8467 40.54C60.8467 40.7733 60.7701 40.96 60.6167 41.1C60.4634 41.24 60.2634 41.31 60.0167 41.31ZM64.1804 47.12C63.7604 47.12 63.3637 47.02 62.9904 46.82C62.6237 46.6133 62.3271 46.3167 62.1004 45.93C61.8737 45.5367 61.7604 45.0667 61.7604 44.52C61.7604 43.9667 61.8737 43.4967 62.1004 43.11C62.3271 42.7233 62.6237 42.43 62.9904 42.23C63.3637 42.0233 63.7604 41.92 64.1804 41.92C64.6004 41.92 64.9937 42.0233 65.3604 42.23C65.7271 42.43 66.0237 42.7233 66.2504 43.11C66.4771 43.4967 66.5904 43.9667 66.5904 44.52C66.5904 45.0667 66.4771 45.5367 66.2504 45.93C66.0237 46.3167 65.7271 46.6133 65.3604 46.82C64.9937 47.02 64.6004 47.12 64.1804 47.12ZM64.1804 45.93C64.4804 45.93 64.7071 45.8033 64.8604 45.55C65.0137 45.29 65.0904 44.9467 65.0904 44.52C65.0904 44.0867 65.0137 43.7433 64.8604 43.49C64.7071 43.2367 64.4804 43.11 64.1804 43.11C63.8737 43.11 63.6437 43.2367 63.4904 43.49C63.3437 43.7433 63.2704 44.0867 63.2704 44.52C63.2704 44.9467 63.3437 45.29 63.4904 45.55C63.6437 45.8033 63.8737 45.93 64.1804 45.93Z" fill="white"/>
<mask id="mask0_22_69" style="mask-type:luminance" maskUnits="userSpaceOnUse" x="16" y="0" width="37" height="37">
<path d="M53 0H16V37H53V0Z" fill="black" fill-opacity="0.2"/>
</mask>
<g mask="url(#mask0_22_69)">
<mask id="mask1_22_69" style="mask-type:luminance" maskUnits="userSpaceOnUse" x="16" y="0" width="37" height="37">
<path d="M53 0H16V37H53V0Z" fill="white"/>
</mask>
<g mask="url(#mask1_22_69)">
<path d="M30.4108 35.697C29.8389 35.5615 29.3604 35.2442 28.6905 34.5571C27.5715 33.4093 26.6637 32.9314 25.0854 32.6598C23.4484 32.3781 22.721 31.7695 22.2834 30.316C21.7437 28.5221 21.1794 27.6628 19.9396 26.747C18.533 25.7082 18.1722 24.7922 18.5155 23.1321C18.8333 21.5944 18.7117 20.5011 18.0658 19.0956C17.2954 17.4186 17.3905 16.5223 18.485 15.1484C19.4879 13.8888 19.803 13.0561 19.9532 11.2658C20.1047 9.45918 20.6075 8.71789 22.0878 8.11803C23.3234 7.61725 24.3803 6.74809 24.9663 5.75105C25.6441 4.59818 25.7429 4.46579 26.1629 4.15273C26.8404 3.64716 27.388 3.50714 28.4314 3.57235C30.2437 3.68611 31.215 3.46847 32.432 2.67637C34.0187 1.6432 34.981 1.6432 36.5678 2.67637C37.7847 3.46847 38.756 3.68611 40.5683 3.57235C42.2821 3.46508 42.9952 3.91476 44.0399 5.76262C44.5576 6.67836 45.6156 7.56954 46.7739 8.06496C48.4233 8.77096 48.9026 9.41514 49.0243 11.0897C49.1561 12.9028 49.5279 13.9165 50.5128 15.1484C51.6094 16.52 51.7051 17.4169 50.9339 19.0956C50.2881 20.5011 50.1664 21.5944 50.4842 23.1321C50.8275 24.7922 50.4667 25.7082 49.0604 26.747C47.8206 27.6628 47.2563 28.5221 46.7163 30.316C46.279 31.7695 45.5516 32.3781 43.9143 32.6598C42.3329 32.932 41.4237 33.4113 40.3095 34.5608C39.0739 35.835 38.1884 36.045 36.461 35.4742C35.0485 35.0073 33.9608 35.0051 32.5536 35.4672C31.5682 35.7904 31.0428 35.8469 30.4108 35.697Z" fill="black"/>
</g>
</g>
<path d="M30.4108 35.3582C29.8389 35.2227 29.3604 34.9054 28.6905 34.2183C27.5715 33.0706 26.6637 32.5926 25.0854 32.3211C23.4484 32.0394 22.721 31.4307 22.2834 29.9775C21.7437 28.1833 21.1794 27.324 19.9396 26.4083C18.533 25.3695 18.1722 24.4534 18.5155 22.7933C18.8333 21.2557 18.7117 20.1624 18.0658 18.7569C17.2954 17.0798 17.3905 16.1835 18.485 14.8097C19.4879 13.5501 19.803 12.7173 19.9532 10.9271C20.1047 9.12043 20.6075 8.37914 22.0878 7.77928C23.3234 7.2785 24.3803 6.40934 24.9663 5.4123C25.6441 4.25944 25.7429 4.12704 26.1629 3.81399C26.8404 3.30841 27.388 3.1684 28.4314 3.2336C30.2437 3.34737 31.215 3.12972 32.432 2.33762C34.0187 1.30445 34.981 1.30445 36.5678 2.33762C37.7847 3.12972 38.756 3.34737 40.5683 3.2336C42.2821 3.12634 42.9952 3.57602 44.0399 5.42387C44.5576 6.33961 45.6156 7.2308 46.7739 7.72621C48.4233 8.43221 48.9026 9.07639 49.0243 10.7509C49.1561 12.5641 49.5279 13.5778 50.5128 14.8097C51.6094 16.1813 51.7051 17.0781 50.9339 18.7569C50.2881 20.1624 50.1664 21.2557 50.4842 22.7933C50.8275 24.4534 50.4667 25.3695 49.0604 26.4083C47.8206 27.324 47.2563 28.1833 46.7163 29.9775C46.279 31.4307 45.5516 32.0394 43.9143 32.3211C42.3329 32.5935 41.4237 33.0728 40.3095 34.222C39.0739 35.4963 38.1884 35.7063 36.461 35.1355C35.0485 34.6683 33.9608 34.6663 32.5536 35.1282C31.5682 35.4517 31.0428 35.5081 30.4108 35.3582Z" fill="white"/>
<path d="M40.5717 17.0632C40.465 16.8455 40.5565 16.5844 40.7741 16.4777C40.9918 16.371 41.2532 16.4624 41.3599 16.6801C41.4663 16.8977 41.3751 17.1588 41.1575 17.2656C40.9395 17.3723 40.6784 17.2808 40.5717 17.0632ZM42.6897 21.4166C42.583 21.1989 42.6745 20.9378 42.8921 20.8311C43.1098 20.7244 43.3709 20.8159 43.4776 21.0335C43.5843 21.2512 43.4928 21.5123 43.2752 21.619C43.0575 21.7257 42.7964 21.6342 42.6897 21.4166ZM42.8746 15.768C41.4815 14.7732 39.6642 14.5164 37.9815 15.1673L42.5808 24.6251C44.1308 23.7042 45.0491 22.113 45.1276 20.4043L46.8732 20.5285C46.9734 20.535 47.0604 20.461 47.0672 20.3589C47.0737 20.2586 46.9997 20.1714 46.8972 20.1649L45.1298 20.0387C45.1123 19.2944 44.9339 18.5347 44.5791 17.8033C44.2242 17.0742 43.7367 16.4647 43.162 15.9902L44.1545 14.5209C44.2113 14.4382 44.1895 14.325 44.1068 14.2682C44.0241 14.2118 43.9109 14.2335 43.8542 14.3162L42.8746 15.7658" fill="#3DDC84"/>
<path d="M38.6344 19.3291C37.3373 19.956 35.9419 20.2739 34.4879 20.2739C31.2119 20.2739 28.2366 18.6109 26.5017 15.9639C26.3645 15.755 26.0816 15.7051 25.8792 15.853L24.2095 17.0829C24.0201 17.2221 23.9766 17.4877 24.1096 17.6836C26.3885 21.0858 30.2479 23.2168 34.4879 23.2168C36.3882 23.2168 38.2143 22.8009 39.9146 21.9803L38.6344 19.3291Z" fill="#4285F4"/>
<path d="M34.4726 8.86581H35.3759V6.86975C35.3759 6.37123 34.9711 5.96643 34.4726 5.96643C33.9744 5.96643 33.5693 6.37123 33.5693 6.86975V8.86581H34.4726Z" fill="#4285F4"/>
<path d="M32.122 12.7622L25.9117 25.5436C25.7767 25.82 25.705 26.1204 25.6986 26.4275L25.6616 28.1012C25.6528 28.5345 26.1533 28.7781 26.4887 28.504L27.7816 27.4417C28.0187 27.2481 28.2103 27.0042 28.3453 26.7278L34.4661 14.1268L32.124 12.7642L32.122 12.7622Z" fill="#4285F4"/>
<path d="M43.2492 26.4252C43.2424 26.1184 43.1685 25.8177 43.0358 25.5414L36.8258 12.76L34.4836 14.1268L40.6045 26.7233C40.7394 27 40.9308 27.2413 41.1682 27.4372L42.4611 28.4995C42.7964 28.7739 43.2992 28.53 43.2882 28.0969L43.2512 26.423L43.2492 26.4252Z" fill="#4285F4"/>
<path d="M34.4726 8.70688C32.9773 8.70688 31.7627 9.92382 31.7627 11.4168C31.7627 12.9101 32.9793 14.1268 34.4726 14.1268C35.9659 14.1268 37.1826 12.9101 37.1826 11.4168C37.1826 9.92382 35.9659 8.70688 34.4726 8.70688ZM34.4726 12.9079C33.652 12.9079 32.9816 12.2397 32.9816 11.4168C32.9816 10.594 33.6497 9.9258 34.4726 9.9258C35.2955 9.9258 35.9637 10.594 35.9637 11.4168C35.9637 12.2397 35.2955 12.9079 34.4726 12.9079Z" fill="#073042"/>
</svg>
