<svg width="37" height="50" viewBox="0 0 37 50" fill="none" xmlns="http://www.w3.org/2000/svg">
<path d="M13.49 47.12C12.9433 47.12 12.44 46.9933 11.98 46.74C11.52 46.4867 11.15 46.1133 10.87 45.62C10.5967 45.12 10.46 44.5067 10.46 43.78C10.46 43.06 10.6 42.4467 10.88 41.94C11.1667 41.4267 11.5433 41.0367 12.01 40.77C12.4833 40.4967 12.9933 40.36 13.54 40.36C13.96 40.36 14.3367 40.4467 14.67 40.62C15.0033 40.7867 15.28 40.9833 15.5 41.21L14.72 42.15C14.5533 41.9967 14.3767 41.8733 14.19 41.78C14.01 41.68 13.8033 41.63 13.57 41.63C13.2767 41.63 13.0067 41.7133 12.76 41.88C12.52 42.0467 12.3267 42.2867 12.18 42.6C12.04 42.9133 11.97 43.29 11.97 43.73C11.97 44.3967 12.1133 44.9167 12.4 45.29C12.6867 45.6633 13.07 45.85 13.55 45.85C13.8167 45.85 14.0533 45.79 14.26 45.67C14.4733 45.55 14.66 45.4067 14.82 45.24L15.6 46.16C15.0533 46.8 14.35 47.12 13.49 47.12ZM18.2971 47.12C17.8704 47.12 17.4438 47.04 17.0171 46.88C16.5971 46.72 16.2204 46.4867 15.8871 46.18L16.7271 45.17C16.9604 45.37 17.2204 45.5333 17.5071 45.66C17.7938 45.7867 18.0704 45.85 18.3371 45.85C18.6438 45.85 18.8704 45.7933 19.0171 45.68C19.1704 45.5667 19.2471 45.4133 19.2471 45.22C19.2471 45.0133 19.1604 44.8633 18.9871 44.77C18.8204 44.67 18.5938 44.56 18.3071 44.44L17.4571 44.08C17.2371 43.9867 17.0271 43.8633 16.8271 43.71C16.6271 43.55 16.4638 43.3533 16.3371 43.12C16.2104 42.8867 16.1471 42.6133 16.1471 42.3C16.1471 41.94 16.2438 41.6133 16.4371 41.32C16.6371 41.0267 16.9104 40.7933 17.2571 40.62C17.6104 40.4467 18.0138 40.36 18.4671 40.36C18.8404 40.36 19.2138 40.4333 19.5871 40.58C19.9604 40.7267 20.2871 40.94 20.5671 41.22L19.8171 42.15C19.6038 41.9833 19.3904 41.8567 19.1771 41.77C18.9638 41.6767 18.7271 41.63 18.4671 41.63C18.2138 41.63 18.0104 41.6833 17.8571 41.79C17.7104 41.89 17.6371 42.0333 17.6371 42.22C17.6371 42.42 17.7304 42.57 17.9171 42.67C18.1104 42.77 18.3471 42.8767 18.6271 42.99L19.4671 43.33C19.8604 43.49 20.1738 43.71 20.4071 43.99C20.6404 44.27 20.7571 44.64 20.7571 45.1C20.7571 45.46 20.6604 45.7933 20.4671 46.1C20.2738 46.4067 19.9938 46.6533 19.6271 46.84C19.2604 47.0267 18.8171 47.12 18.2971 47.12ZM23.678 47.12C23.2513 47.12 22.8246 47.04 22.398 46.88C21.978 46.72 21.6013 46.4867 21.268 46.18L22.108 45.17C22.3413 45.37 22.6013 45.5333 22.888 45.66C23.1746 45.7867 23.4513 45.85 23.718 45.85C24.0246 45.85 24.2513 45.7933 24.398 45.68C24.5513 45.5667 24.628 45.4133 24.628 45.22C24.628 45.0133 24.5413 44.8633 24.368 44.77C24.2013 44.67 23.9746 44.56 23.688 44.44L22.838 44.08C22.618 43.9867 22.408 43.8633 22.208 43.71C22.008 43.55 21.8446 43.3533 21.718 43.12C21.5913 42.8867 21.528 42.6133 21.528 42.3C21.528 41.94 21.6246 41.6133 21.818 41.32C22.018 41.0267 22.2913 40.7933 22.638 40.62C22.9913 40.4467 23.3946 40.36 23.848 40.36C24.2213 40.36 24.5946 40.4333 24.968 40.58C25.3413 40.7267 25.668 40.94 25.948 41.22L25.198 42.15C24.9846 41.9833 24.7713 41.8567 24.558 41.77C24.3446 41.6767 24.108 41.63 23.848 41.63C23.5946 41.63 23.3913 41.6833 23.238 41.79C23.0913 41.89 23.018 42.0333 23.018 42.22C23.018 42.42 23.1113 42.57 23.298 42.67C23.4913 42.77 23.728 42.8767 24.008 42.99L24.848 43.33C25.2413 43.49 25.5546 43.71 25.788 43.99C26.0213 44.27 26.138 44.64 26.138 45.1C26.138 45.46 26.0413 45.7933 25.848 46.1C25.6546 46.4067 25.3746 46.6533 25.008 46.84C24.6413 47.0267 24.198 47.12 23.678 47.12Z" fill="white"/>
<path d="M0 0H31.08C32.6501 0 34.1559 0.623712 35.2661 1.73393C36.3763 2.84414 37 4.34992 37 5.92V31.08C37 32.6501 36.3763 34.1559 35.2661 35.2661C34.1559 36.3763 32.6501 37 31.08 37H5.92C4.34992 37 2.84414 36.3763 1.73393 35.2661C0.623712 34.1559 0 32.6501 0 31.08L0 0Z" fill="#663399"/>
<path d="M30.212 34.0363C29.0136 34.0363 28.0971 33.6878 27.4555 32.9873C26.8209 32.2832 26.4905 31.2787 26.4609 29.9667H29.0435C29.0583 31.127 29.4661 31.7086 30.2675 31.7086C30.676 31.7086 30.9653 31.5791 31.1322 31.3231C31.2953 31.0678 31.3808 30.6597 31.3808 30.1002C31.3808 29.6555 31.2694 29.2848 31.0541 28.9921C30.7619 28.644 30.3868 28.375 29.9633 28.2099L29.0062 27.75C28.1529 27.3423 27.5332 26.8605 27.151 26.297C26.7799 25.7372 26.5945 24.9517 26.5945 23.9475C26.5945 22.8242 26.9212 21.9125 27.5702 21.2117C28.238 20.5113 29.1471 20.1631 30.3082 20.1631C31.4293 20.1631 32.2973 20.5076 32.9093 21.1932C33.5327 21.8829 33.8591 22.8686 33.8853 24.1584H31.3993C31.4141 23.7366 31.329 23.3178 31.1507 22.9352C31.0101 22.654 30.7352 22.513 30.3271 22.513C29.6 22.513 29.2363 22.9463 29.2363 23.8099C29.2363 24.2476 29.3251 24.5883 29.5034 24.8477C29.7603 25.1347 30.0822 25.3559 30.4421 25.493L31.3586 25.897C32.3047 26.3307 32.9874 26.8609 33.4066 27.5021C33.8295 28.1396 34.0374 28.9921 34.0374 30.0595C34.0374 31.3383 33.7033 32.3202 33.0244 33.0058C32.3491 33.6915 31.4104 34.0363 30.2124 34.0363H30.212ZM21.8714 34.0363C20.6726 34.0363 19.7565 33.6878 19.1146 32.9873C18.48 32.2832 18.15 31.2787 18.1204 29.9667H20.7026C20.7174 31.127 21.1255 31.7086 21.9273 31.7086C22.3351 31.7086 22.6244 31.5791 22.7876 31.3231C22.9548 31.0678 23.0362 30.6597 23.0362 30.1002C23.0362 29.6555 22.9289 29.2848 22.7136 28.9921C22.4214 28.644 22.0463 28.375 21.6228 28.2099L20.6656 27.75C19.812 27.3423 19.1926 26.8605 18.8104 26.297C18.4393 25.7372 18.254 24.9517 18.254 23.9475C18.254 22.8242 18.5803 21.9125 19.2296 21.2117C19.8975 20.5113 20.8066 20.1631 21.9676 20.1631C23.0884 20.1631 23.9564 20.5076 24.565 21.1932C25.1959 21.8829 25.5185 22.8686 25.5444 24.1584H23.0588C23.0736 23.7366 22.9885 23.3178 22.8101 22.9352C22.6692 22.654 22.3946 22.513 21.9865 22.513C21.2591 22.513 20.8954 22.9463 20.8954 23.8099C20.8954 24.2476 20.9846 24.5883 21.1625 24.8477C21.4194 25.1347 21.7413 25.3559 22.1012 25.493L23.0177 25.897C23.9638 26.3307 24.6464 26.8609 25.066 27.5021C25.4852 28.1396 25.6965 28.9921 25.6965 30.0595C25.6965 31.3383 25.3591 32.3202 24.6838 33.0058C24.0086 33.6915 23.0699 34.0363 21.8714 34.0363ZM13.1857 34.0363C12.0128 34.0363 11.0819 33.7174 10.3918 33.0798C9.70177 32.4464 9.36026 31.4937 9.36026 30.2334V24.0067C9.36026 22.7543 9.72397 21.8052 10.451 21.1529C11.1895 20.508 12.1578 20.182 13.3563 20.182C14.5177 20.182 15.4338 20.5154 16.1128 21.1751C16.7995 21.8385 17.1443 22.8246 17.1443 24.1403V24.6331H14.41V24.1551C14.41 23.6474 14.2987 23.273 14.0833 23.0284C13.9893 22.9061 13.8676 22.8078 13.7284 22.7414C13.5891 22.6751 13.4361 22.6426 13.2819 22.6466C12.8368 22.6466 12.5215 22.7983 12.3432 23.1061C12.1534 23.532 12.0681 23.9971 12.0946 24.4625V29.8742C12.0946 31.0045 12.4919 31.5791 13.2823 31.5902C13.653 31.5902 13.9312 31.4567 14.1244 31.1899C14.3341 30.8529 14.4339 30.4591 14.41 30.0629V29.6592H17.1443V30.0817C17.1443 30.9601 16.9738 31.6938 16.6285 32.2795C16.3004 32.8512 15.8079 33.3109 15.2151 33.599C14.5821 33.9011 13.887 34.0509 13.1857 34.0363Z" fill="white"/>
</svg>
