<svg width="48" height="50" viewBox="0 0 48 50" fill="none" xmlns="http://www.w3.org/2000/svg">
<path d="M0.77 47V40.48H4.85V41.72H2.24V43.03H4.46V44.26H2.24V45.76H4.95V47H0.77ZM8.19086 47.12C7.73086 47.12 7.31419 47.02 6.94086 46.82C6.57419 46.6133 6.28086 46.3167 6.06086 45.93C5.84753 45.5367 5.74086 45.0667 5.74086 44.52C5.74086 43.9667 5.86086 43.4967 6.10086 43.11C6.34086 42.7233 6.65753 42.43 7.05086 42.23C7.44419 42.0233 7.86753 41.92 8.32086 41.92C8.62753 41.92 8.89753 41.97 9.13086 42.07C9.37086 42.17 9.58419 42.2967 9.77086 42.45L9.08086 43.4C8.84753 43.2067 8.62419 43.11 8.41086 43.11C8.05753 43.11 7.77419 43.2367 7.56086 43.49C7.35419 43.7433 7.25086 44.0867 7.25086 44.52C7.25086 44.9467 7.35419 45.29 7.56086 45.55C7.77419 45.8033 8.04086 45.93 8.36086 45.93C8.52086 45.93 8.67753 45.8967 8.83086 45.83C8.98419 45.7567 9.12419 45.67 9.25086 45.57L9.83086 46.53C9.58419 46.7433 9.31753 46.8967 9.03086 46.99C8.74419 47.0767 8.46419 47.12 8.19086 47.12ZM12.0488 47.12C11.5422 47.12 11.1888 46.97 10.9888 46.67C10.7955 46.3633 10.6988 45.96 10.6988 45.46V39.99H12.1688V45.52C12.1688 45.6733 12.1955 45.78 12.2488 45.84C12.3088 45.9 12.3688 45.93 12.4288 45.93C12.4622 45.93 12.4888 45.93 12.5088 45.93C12.5355 45.9233 12.5688 45.9167 12.6088 45.91L12.7888 47C12.7088 47.0333 12.6055 47.06 12.4788 47.08C12.3588 47.1067 12.2155 47.12 12.0488 47.12ZM13.5602 47V42.04H15.0302V47H13.5602ZM14.2902 41.31C14.0435 41.31 13.8435 41.24 13.6902 41.1C13.5368 40.96 13.4602 40.7733 13.4602 40.54C13.4602 40.3067 13.5368 40.12 13.6902 39.98C13.8435 39.84 14.0435 39.77 14.2902 39.77C14.5368 39.77 14.7368 39.84 14.8902 39.98C15.0435 40.12 15.1202 40.3067 15.1202 40.54C15.1202 40.7733 15.0435 40.96 14.8902 41.1C14.7368 41.24 14.5368 41.31 14.2902 41.31ZM16.3238 48.84V42.04H17.5238L17.6238 42.53H17.6638C17.8572 42.3567 18.0738 42.2133 18.3138 42.1C18.5605 41.98 18.8138 41.92 19.0738 41.92C19.6738 41.92 20.1472 42.15 20.4938 42.61C20.8405 43.0633 21.0138 43.6733 21.0138 44.44C21.0138 45.0067 20.9138 45.49 20.7138 45.89C20.5138 46.29 20.2538 46.5967 19.9338 46.81C19.6205 47.0167 19.2838 47.12 18.9238 47.12C18.7105 47.12 18.5038 47.0767 18.3038 46.99C18.1038 46.8967 17.9172 46.7667 17.7438 46.6L17.7938 47.39V48.84H16.3238ZM18.5838 45.92C18.8372 45.92 19.0538 45.8033 19.2338 45.57C19.4138 45.3367 19.5038 44.9667 19.5038 44.46C19.5038 43.5667 19.2172 43.12 18.6438 43.12C18.3572 43.12 18.0738 43.27 17.7938 43.57V45.6C17.9272 45.72 18.0605 45.8033 18.1938 45.85C18.3272 45.8967 18.4572 45.92 18.5838 45.92ZM23.4674 47.12C23.1408 47.12 22.8041 47.0567 22.4574 46.93C22.1174 46.8033 21.8208 46.6367 21.5674 46.43L22.2274 45.51C22.4541 45.6767 22.6708 45.8067 22.8774 45.9C23.0908 45.9867 23.3008 46.03 23.5074 46.03C23.7274 46.03 23.8874 45.9933 23.9874 45.92C24.0874 45.84 24.1374 45.7367 24.1374 45.61C24.1374 45.4967 24.0874 45.4033 23.9874 45.33C23.8941 45.2567 23.7708 45.19 23.6174 45.13C23.4641 45.0633 23.3008 44.9967 23.1274 44.93C22.9274 44.85 22.7274 44.75 22.5274 44.63C22.3341 44.51 22.1708 44.3567 22.0374 44.17C21.9041 43.9767 21.8374 43.7433 21.8374 43.47C21.8374 43.01 22.0108 42.6367 22.3574 42.35C22.7108 42.0633 23.1708 41.92 23.7374 41.92C24.1174 41.92 24.4508 41.9867 24.7374 42.12C25.0308 42.2467 25.2808 42.39 25.4874 42.55L24.8274 43.43C24.6541 43.2967 24.4808 43.1933 24.3074 43.12C24.1341 43.0467 23.9608 43.01 23.7874 43.01C23.4074 43.01 23.2174 43.14 23.2174 43.4C23.2174 43.56 23.3108 43.6833 23.4974 43.77C23.6908 43.85 23.9141 43.9367 24.1674 44.03C24.3808 44.1033 24.5874 44.2 24.7874 44.32C24.9941 44.4333 25.1641 44.5867 25.2974 44.78C25.4374 44.9667 25.5074 45.2133 25.5074 45.52C25.5074 45.9667 25.3341 46.3467 24.9874 46.66C24.6408 46.9667 24.1341 47.12 23.4674 47.12ZM28.661 47.12C28.1877 47.12 27.761 47.0167 27.381 46.81C27.001 46.6033 26.701 46.3067 26.481 45.92C26.261 45.5333 26.151 45.0667 26.151 44.52C26.151 43.98 26.261 43.5167 26.481 43.13C26.7077 42.7433 27.001 42.4467 27.361 42.24C27.721 42.0267 28.0977 41.92 28.491 41.92C28.9643 41.92 29.3543 42.0267 29.661 42.24C29.9743 42.4467 30.2077 42.73 30.361 43.09C30.521 43.4433 30.601 43.8467 30.601 44.3C30.601 44.4267 30.5943 44.5533 30.581 44.68C30.5677 44.8 30.5543 44.89 30.541 44.95H27.571C27.6377 45.31 27.7877 45.5767 28.021 45.75C28.2543 45.9167 28.5343 46 28.861 46C29.2143 46 29.571 45.89 29.931 45.67L30.421 46.56C30.1677 46.7333 29.8843 46.87 29.571 46.97C29.2577 47.07 28.9543 47.12 28.661 47.12ZM27.561 43.98H29.351C29.351 43.7067 29.2843 43.4833 29.151 43.31C29.0243 43.13 28.8143 43.04 28.521 43.04C28.2943 43.04 28.091 43.12 27.911 43.28C27.731 43.4333 27.6143 43.6667 27.561 43.98ZM33.7388 47V40.48H35.2088V47H33.7388ZM36.7466 47V40.48H38.5866C39.2532 40.48 39.8299 40.5933 40.3166 40.82C40.8032 41.0467 41.1799 41.4 41.4466 41.88C41.7199 42.3533 41.8566 42.9633 41.8566 43.71C41.8566 44.4567 41.7232 45.0733 41.4566 45.56C41.1899 46.0467 40.8166 46.41 40.3366 46.65C39.8632 46.8833 39.3066 47 38.6666 47H36.7466ZM38.2166 45.81H38.4966C38.8699 45.81 39.1932 45.7433 39.4666 45.61C39.7466 45.4767 39.9632 45.2567 40.1166 44.95C40.2699 44.6433 40.3466 44.23 40.3466 43.71C40.3466 43.19 40.2699 42.7833 40.1166 42.49C39.9632 42.19 39.7466 41.98 39.4666 41.86C39.1932 41.7333 38.8699 41.67 38.4966 41.67H38.2166V45.81ZM43.0942 47V40.48H47.1742V41.72H44.5642V43.03H46.7842V44.26H44.5642V45.76H47.2742V47H43.0942Z" fill="white"/>
<path d="M14.8717 23.5916H8.81977C9.61702 26.3458 11.1028 28.81 13.3134 30.9843C16.7923 34.4633 20.9598 36.2027 25.8883 36.2027C26.8667 36.2027 27.8089 36.1303 28.7511 35.9853C32.4475 35.4417 35.6728 33.7747 38.4269 30.9843C40.6375 28.81 42.1233 26.3458 42.9205 23.5916H40.4563H36.8686H14.8717Z" fill="#2C2255"/>
<path d="M11.5377 15.3654H8.38491C8.27619 16.054 8.20371 16.7787 8.16747 17.5035H11.9363H13.8207H41.1086H43.6091C43.5728 16.7787 43.5004 16.054 43.3917 15.3654" fill="#2C2255"/>
<path d="M8.13123 19.4966C8.16747 20.2214 8.23995 20.9462 8.34866 21.6347H11.6464H14.1469H40.8187H43.2829C43.3916 20.9462 43.4641 20.2214 43.5004 19.4966" fill="#2C2255"/>
<path d="M42.8843 13.3722C42.087 10.6181 40.565 8.11761 38.3907 5.94328C35.6003 3.18913 32.4113 1.52214 28.7149 0.978557C27.7727 0.833602 26.8305 0.761124 25.852 0.761124C20.9598 0.761124 16.7923 2.50059 13.2771 5.94328C11.1028 8.15385 9.61702 10.6181 8.78353 13.3722" fill="#2C2255"/>
<path d="M7.0803 18.4819C7.0803 9.13231 14.1106 1.34096 23.2428 0.000118236C23.0254 0.000118236 22.7717 0.000118236 22.5543 0.000118236C12.2987 -0.0361206 4 8.26258 4 18.4819C4 28.7013 12.3349 37 22.5905 37C22.808 37 23.0616 37 23.2791 37C14.1106 35.6229 7.0803 27.8678 7.0803 18.4819Z" fill="#F7941E"/>
<path d="M37.9196 17.5035C37.8471 16.7787 37.7384 16.0539 37.5572 15.3654H14.1469C13.9657 16.0539 13.857 16.7787 13.7845 17.5035H37.9196Z" fill="url(#paint0_linear_22_98)"/>
<path d="M37.9196 19.4966H13.7845C13.857 20.2214 13.9657 20.9462 14.1469 21.6347H37.5209C37.7021 20.9462 37.8471 20.2214 37.9196 19.4966Z" fill="url(#paint1_linear_22_98)"/>
<path d="M25.852 30.5857C30.708 30.5857 34.8755 27.7229 36.8324 23.5916H14.8717C16.7923 27.7229 20.996 30.5857 25.852 30.5857Z" fill="url(#paint2_linear_22_98)"/>
<path d="M12.0088 19.4966H13.7845H37.9558H41.1448H43.5728C43.5728 19.1705 43.6091 18.8806 43.6091 18.5544C43.6091 18.192 43.6091 17.8659 43.5728 17.5397H41.1811H37.992H13.7845H11.9001H8.13121C8.09497 17.8659 8.09497 18.2283 8.09497 18.5544C8.09497 18.8806 8.09497 19.2067 8.13121 19.4966H12.0088Z" fill="white"/>
<path d="M14.7992 13.3723H8.81975C8.63856 14.0246 8.4936 14.6769 8.38489 15.3654H11.4652H14.1106H37.5572H40.8911H43.2467C43.138 14.6769 42.9568 14.0246 42.7756 13.3723" fill="white"/>
<path d="M40.9274 21.6347H37.5934H14.1831H11.6826H8.38489C8.4936 22.3233 8.63856 22.9756 8.81975 23.6279H14.9079H36.9049H40.5288H42.8843C43.0655 22.9756 43.2467 22.3233 43.3554 21.6347H40.9274Z" fill="white"/>
<defs>
<linearGradient id="paint0_linear_22_98" x1="25.852" y1="38.6394" x2="25.852" y2="11.9549" gradientUnits="userSpaceOnUse">
<stop offset="0.3033" stop-color="#473788"/>
<stop offset="0.872" stop-color="#2C2255"/>
</linearGradient>
<linearGradient id="paint1_linear_22_98" x1="25.852" y1="38.6398" x2="25.852" y2="11.9553" gradientUnits="userSpaceOnUse">
<stop offset="0.3033" stop-color="#473788"/>
<stop offset="0.872" stop-color="#2C2255"/>
</linearGradient>
<linearGradient id="paint2_linear_22_98" x1="25.852" y1="38.6391" x2="25.852" y2="11.9559" gradientUnits="userSpaceOnUse">
<stop offset="0.3033" stop-color="#473788"/>
<stop offset="0.8631" stop-color="#2C2255"/>
</linearGradient>
</defs>
</svg>
