<svg width="38" height="50" viewBox="0 0 38 50" fill="none" xmlns="http://www.w3.org/2000/svg">
<g clip-path="url(#clip0_21_25)">
<path d="M13.5089 35.7115C15.0449 36.3298 16.7113 36.6966 18.4611 36.7577C20.8291 36.8404 23.0809 36.3508 25.094 35.4208C22.68 34.4724 20.4937 33.0853 18.6277 31.3609C17.4182 33.2974 15.6292 34.8271 13.5089 35.7115Z" fill="#FF9100"/>
<path d="M18.6275 31.3615C14.3681 27.4222 11.7842 21.7205 12.0026 15.4668C12.0097 15.2638 12.0204 15.0608 12.033 14.8579C11.2701 14.6606 10.4737 14.5402 9.65413 14.5116C8.48104 14.4706 7.34494 14.6161 6.2724 14.9181C5.13536 16.9099 4.44922 19.1951 4.36373 21.643C4.14313 27.9601 7.96607 33.4799 13.5086 35.7121C15.629 34.8276 17.4179 33.2999 18.6275 31.3615Z" fill="#FFC400"/>
<path d="M18.6276 31.3613C19.6178 29.7765 20.2182 27.9185 20.2881 25.9168C20.472 20.6512 16.9322 16.1216 12.033 14.8577C12.0205 15.0606 12.0098 15.2636 12.0026 15.4666C11.7843 21.7203 14.3682 27.422 18.6276 31.3613Z" fill="#FF9100"/>
<path d="M19.7403 0.0567169C16.95 2.29207 14.7466 5.2396 13.4135 8.63507C12.6503 10.58 12.1707 12.6691 12.0307 14.859C16.9299 16.1229 20.4698 20.6525 20.2859 25.918C20.216 27.9198 19.6138 29.7759 18.6252 31.3626C20.4911 33.0888 22.6775 34.4741 25.0915 35.4225C29.937 33.1827 33.3749 28.363 33.574 22.6623C33.7029 18.9688 32.2839 15.677 30.2787 12.8984C28.161 9.95974 19.7403 0.0567169 19.7403 0.0567169Z" fill="#DD2C00"/>
</g>
<path d="M0.77 47V40.48H4.88V41.72H2.24V43.23H4.5V44.47H2.24V47H0.77ZM5.89414 47V42.04H7.36414V47H5.89414ZM6.62414 41.31C6.37747 41.31 6.17747 41.24 6.02414 41.1C5.87081 40.96 5.79414 40.7733 5.79414 40.54C5.79414 40.3067 5.87081 40.12 6.02414 39.98C6.17747 39.84 6.37747 39.77 6.62414 39.77C6.87081 39.77 7.07081 39.84 7.22414 39.98C7.37747 40.12 7.45414 40.3067 7.45414 40.54C7.45414 40.7733 7.37747 40.96 7.22414 41.1C7.07081 41.24 6.87081 41.31 6.62414 41.31ZM8.65781 47V42.04H9.85781L9.95781 42.91H9.99781C10.1778 42.5767 10.3945 42.33 10.6478 42.17C10.9011 42.0033 11.1545 41.92 11.4078 41.92C11.5478 41.92 11.6645 41.93 11.7578 41.95C11.8511 41.9633 11.9311 41.9867 11.9978 42.02L11.7578 43.29C11.6711 43.2633 11.5845 43.2433 11.4978 43.23C11.4178 43.2167 11.3245 43.21 11.2178 43.21C11.0311 43.21 10.8345 43.28 10.6278 43.42C10.4278 43.5533 10.2611 43.7867 10.1278 44.12V47H8.65781ZM14.7645 47.12C14.2912 47.12 13.8645 47.0167 13.4845 46.81C13.1045 46.6033 12.8045 46.3067 12.5845 45.92C12.3645 45.5333 12.2545 45.0667 12.2545 44.52C12.2545 43.98 12.3645 43.5167 12.5845 43.13C12.8112 42.7433 13.1045 42.4467 13.4645 42.24C13.8245 42.0267 14.2012 41.92 14.5945 41.92C15.0679 41.92 15.4579 42.0267 15.7645 42.24C16.0779 42.4467 16.3112 42.73 16.4645 43.09C16.6245 43.4433 16.7045 43.8467 16.7045 44.3C16.7045 44.4267 16.6979 44.5533 16.6845 44.68C16.6712 44.8 16.6579 44.89 16.6445 44.95H13.6745C13.7412 45.31 13.8912 45.5767 14.1245 45.75C14.3579 45.9167 14.6379 46 14.9645 46C15.3179 46 15.6745 45.89 16.0345 45.67L16.5245 46.56C16.2712 46.7333 15.9879 46.87 15.6745 46.97C15.3612 47.07 15.0579 47.12 14.7645 47.12ZM13.6645 43.98H15.4545C15.4545 43.7067 15.3879 43.4833 15.2545 43.31C15.1279 43.13 14.9179 43.04 14.6245 43.04C14.3979 43.04 14.1945 43.12 14.0145 43.28C13.8345 43.4333 13.7179 43.6667 13.6645 43.98ZM20.3203 47.12C20.1003 47.12 19.877 47.0667 19.6503 46.96C19.4303 46.8467 19.2236 46.6833 19.0303 46.47H18.9903L18.8703 47H17.7203V39.99H19.1903V41.71L19.1503 42.47C19.3436 42.2967 19.5536 42.1633 19.7803 42.07C20.007 41.97 20.2336 41.92 20.4603 41.92C20.8603 41.92 21.207 42.0233 21.5003 42.23C21.7936 42.4367 22.017 42.73 22.1703 43.11C22.3303 43.4833 22.4103 43.9233 22.4103 44.43C22.4103 44.9967 22.3103 45.4833 22.1103 45.89C21.9103 46.29 21.6503 46.5967 21.3303 46.81C21.017 47.0167 20.6803 47.12 20.3203 47.12ZM19.9803 45.92C20.2336 45.92 20.4503 45.8033 20.6303 45.57C20.8103 45.3367 20.9003 44.9667 20.9003 44.46C20.9003 43.5667 20.6136 43.12 20.0403 43.12C19.747 43.12 19.4636 43.27 19.1903 43.57V45.6C19.3236 45.72 19.457 45.8033 19.5903 45.85C19.7236 45.8967 19.8536 45.92 19.9803 45.92ZM24.5953 47.12C24.142 47.12 23.782 46.9767 23.5153 46.69C23.2486 46.3967 23.1153 46.04 23.1153 45.62C23.1153 45.1 23.3353 44.6933 23.7753 44.4C24.2153 44.1067 24.9253 43.91 25.9053 43.81C25.892 43.59 25.8253 43.4167 25.7053 43.29C25.592 43.1567 25.3986 43.09 25.1253 43.09C24.9186 43.09 24.7086 43.13 24.4953 43.21C24.282 43.29 24.0553 43.4 23.8153 43.54L23.2853 42.57C23.5986 42.3767 23.932 42.22 24.2853 42.1C24.6453 41.98 25.0186 41.92 25.4053 41.92C26.0386 41.92 26.5253 42.1033 26.8653 42.47C27.2053 42.8367 27.3753 43.4 27.3753 44.16V47H26.1753L26.0753 46.49H26.0353C25.8286 46.6767 25.6053 46.83 25.3653 46.95C25.132 47.0633 24.8753 47.12 24.5953 47.12ZM25.0953 45.98C25.262 45.98 25.4053 45.9433 25.5253 45.87C25.652 45.79 25.7786 45.6867 25.9053 45.56V44.69C25.3853 44.7567 25.0253 44.8633 24.8253 45.01C24.6253 45.15 24.5253 45.3167 24.5253 45.51C24.5253 45.67 24.5753 45.79 24.6753 45.87C24.782 45.9433 24.922 45.98 25.0953 45.98ZM30.0788 47.12C29.7521 47.12 29.4154 47.0567 29.0688 46.93C28.7288 46.8033 28.4321 46.6367 28.1788 46.43L28.8388 45.51C29.0654 45.6767 29.2821 45.8067 29.4888 45.9C29.7021 45.9867 29.9121 46.03 30.1188 46.03C30.3388 46.03 30.4988 45.9933 30.5988 45.92C30.6988 45.84 30.7488 45.7367 30.7488 45.61C30.7488 45.4967 30.6988 45.4033 30.5988 45.33C30.5054 45.2567 30.3821 45.19 30.2288 45.13C30.0754 45.0633 29.9121 44.9967 29.7388 44.93C29.5388 44.85 29.3388 44.75 29.1388 44.63C28.9454 44.51 28.7821 44.3567 28.6488 44.17C28.5154 43.9767 28.4488 43.7433 28.4488 43.47C28.4488 43.01 28.6221 42.6367 28.9688 42.35C29.3221 42.0633 29.7821 41.92 30.3488 41.92C30.7288 41.92 31.0621 41.9867 31.3488 42.12C31.6421 42.2467 31.8921 42.39 32.0988 42.55L31.4388 43.43C31.2654 43.2967 31.0921 43.1933 30.9188 43.12C30.7454 43.0467 30.5721 43.01 30.3988 43.01C30.0188 43.01 29.8288 43.14 29.8288 43.4C29.8288 43.56 29.9221 43.6833 30.1088 43.77C30.3021 43.85 30.5254 43.9367 30.7788 44.03C30.9921 44.1033 31.1988 44.2 31.3988 44.32C31.6054 44.4333 31.7754 44.5867 31.9088 44.78C32.0488 44.9667 32.1188 45.2133 32.1188 45.52C32.1188 45.9667 31.9454 46.3467 31.5988 46.66C31.2521 46.9667 30.7454 47.12 30.0788 47.12ZM35.2723 47.12C34.799 47.12 34.3723 47.0167 33.9923 46.81C33.6123 46.6033 33.3123 46.3067 33.0923 45.92C32.8723 45.5333 32.7623 45.0667 32.7623 44.52C32.7623 43.98 32.8723 43.5167 33.0923 43.13C33.319 42.7433 33.6123 42.4467 33.9723 42.24C34.3323 42.0267 34.709 41.92 35.1023 41.92C35.5757 41.92 35.9657 42.0267 36.2723 42.24C36.5857 42.4467 36.819 42.73 36.9723 43.09C37.1323 43.4433 37.2123 43.8467 37.2123 44.3C37.2123 44.4267 37.2057 44.5533 37.1923 44.68C37.179 44.8 37.1657 44.89 37.1523 44.95H34.1823C34.249 45.31 34.399 45.5767 34.6323 45.75C34.8657 45.9167 35.1457 46 35.4723 46C35.8257 46 36.1823 45.89 36.5423 45.67L37.0323 46.56C36.779 46.7333 36.4957 46.87 36.1823 46.97C35.869 47.07 35.5657 47.12 35.2723 47.12ZM34.1723 43.98H35.9623C35.9623 43.7067 35.8957 43.4833 35.7623 43.31C35.6357 43.13 35.4257 43.04 35.1323 43.04C34.9057 43.04 34.7023 43.12 34.5223 43.28C34.3423 43.4333 34.2257 43.6667 34.1723 43.98Z" fill="white"/>
<defs>
<clipPath id="clip0_21_25">
<rect width="29.7321" height="37" fill="white" transform="translate(4)"/>
</clipPath>
</defs>
</svg>
