<svg width="37" height="50" viewBox="0 0 37 50" fill="none" xmlns="http://www.w3.org/2000/svg">
<path d="M15.65 47.12C15.0567 47.12 14.5167 46.9933 14.03 46.74C13.55 46.4867 13.1667 46.1133 12.88 45.62C12.6 45.12 12.46 44.5067 12.46 43.78C12.46 43.06 12.6033 42.4467 12.89 41.94C13.1833 41.4267 13.57 41.0367 14.05 40.77C14.53 40.4967 15.06 40.36 15.64 40.36C16.1133 40.36 16.52 40.4467 16.86 40.62C17.2 40.7933 17.4767 40.99 17.69 41.21L16.92 42.15C16.7533 42.0033 16.5767 41.88 16.39 41.78C16.2033 41.68 15.97 41.63 15.69 41.63C15.1833 41.63 14.77 41.8167 14.45 42.19C14.13 42.5633 13.97 43.0767 13.97 43.73C13.97 44.3967 14.1233 44.9167 14.43 45.29C14.7367 45.6633 15.1933 45.85 15.8 45.85C15.9333 45.85 16.0633 45.8333 16.19 45.8C16.3167 45.7667 16.42 45.7167 16.5 45.65V44.53H15.42V43.33H17.8V46.33C17.5733 46.55 17.27 46.7367 16.89 46.89C16.5167 47.0433 16.1033 47.12 15.65 47.12ZM19.027 47V42.04H20.497V47H19.027ZM19.757 41.31C19.5103 41.31 19.3103 41.24 19.157 41.1C19.0036 40.96 18.927 40.7733 18.927 40.54C18.927 40.3067 19.0036 40.12 19.157 39.98C19.3103 39.84 19.5103 39.77 19.757 39.77C20.0036 39.77 20.2036 39.84 20.357 39.98C20.5103 40.12 20.587 40.3067 20.587 40.54C20.587 40.7733 20.5103 40.96 20.357 41.1C20.2036 41.24 20.0036 41.31 19.757 41.31ZM23.7006 47.12C23.0873 47.12 22.6473 46.9433 22.3806 46.59C22.1206 46.2367 21.9906 45.7733 21.9906 45.2V43.19H21.3106V42.1L22.0706 42.04L22.2406 40.72H23.4606V42.04H24.6506V43.19H23.4606V45.18C23.4606 45.46 23.5173 45.6633 23.6306 45.79C23.7506 45.91 23.9073 45.97 24.1006 45.97C24.1806 45.97 24.2606 45.96 24.3406 45.94C24.4273 45.92 24.504 45.8967 24.5706 45.87L24.8006 46.94C24.674 46.98 24.5173 47.02 24.3306 47.06C24.1506 47.1 23.9406 47.12 23.7006 47.12Z" fill="white"/>
<mask id="mask0_22_108" style="mask-type:luminance" maskUnits="userSpaceOnUse" x="0" y="0" width="37" height="37">
<path d="M0 0H37V37H0V0Z" fill="white"/>
</mask>
<g mask="url(#mask0_22_108)">
<path d="M36.303 16.8525L20.1479 0.698625C19.9266 0.477182 19.6639 0.301515 19.3746 0.181663C19.0854 0.0618106 18.7754 0.00012207 18.4624 0.00012207C18.1493 0.00012207 17.8393 0.0618106 17.5501 0.181663C17.2608 0.301515 16.9981 0.477182 16.7768 0.698625L13.4234 4.05366L17.678 8.30825C18.1782 8.13838 18.7159 8.11186 19.2304 8.23169C19.7449 8.35153 20.2156 8.61293 20.5892 8.98635C20.965 9.36247 21.2273 9.83675 21.3461 10.3549C21.465 10.8731 21.4356 11.4143 21.2613 11.9166L25.3633 16.0173C25.8657 15.8428 26.4071 15.8135 26.9254 15.9325C27.4437 16.0516 27.918 16.3143 28.2939 16.6906C28.5572 16.9538 28.7661 17.2664 28.9085 17.6103C29.051 17.9543 29.1244 18.323 29.1244 18.6953C29.1244 19.0676 29.051 19.4363 28.9085 19.7802C28.7661 20.1242 28.5572 20.4367 28.2939 20.7C27.7616 21.2317 27.04 21.5304 26.2876 21.5304C25.5352 21.5304 24.8136 21.2317 24.2813 20.7C23.8859 20.3039 23.6165 19.7997 23.507 19.2508C23.3975 18.702 23.4528 18.133 23.666 17.6155L19.8407 13.7914V23.8569C20.2444 24.0563 20.5949 24.3491 20.863 24.711C21.131 25.0728 21.3091 25.4933 21.3823 25.9377C21.4555 26.382 21.4218 26.8374 21.2839 27.2662C21.1461 27.6949 20.9081 28.0846 20.5896 28.403C20.3264 28.6663 20.0139 28.8752 19.6699 29.0177C19.3259 29.1602 18.9573 29.2335 18.585 29.2335C18.2126 29.2335 17.844 29.1602 17.5 29.0177C17.156 28.8752 16.8435 28.6663 16.5803 28.403C16.3169 28.1398 16.108 27.8272 15.9655 27.4832C15.823 27.1392 15.7496 26.7705 15.7496 26.3981C15.7496 26.0258 15.823 25.6571 15.9655 25.3131C16.108 24.9691 16.3169 24.6565 16.5803 24.3933C16.8456 24.1274 17.1609 23.9168 17.508 23.7735V13.6154C17.1623 13.473 16.8481 13.2637 16.5835 12.9995C16.3189 12.7353 16.1091 12.4215 15.9662 12.076C15.8233 11.7305 15.75 11.3601 15.7506 10.9862C15.7513 10.6123 15.8258 10.2422 15.9698 9.89718L11.7748 5.70138L0.696617 16.7768C0.250201 17.2241 -0.000518799 17.8302 -0.000518799 18.4621C-0.000518799 19.0941 0.250201 19.7002 0.696617 20.1475L16.8525 36.3034C17.2998 36.7497 17.9058 37.0003 18.5376 37.0003C19.1695 37.0003 19.7755 36.7497 20.2228 36.3034L36.303 20.2232C36.7494 19.7759 37.0001 19.1698 37.0001 18.5378C37.0001 17.9059 36.7494 17.2998 36.303 16.8525Z" fill="#F03C2E"/>
</g>
</svg>
