<svg width="33" height="50" viewBox="0 0 33 50" fill="none" xmlns="http://www.w3.org/2000/svg">
<path d="M3.77 47V40.48H5.24V42.99H7.49V40.48H8.97V47H7.49V44.28H5.24V47H3.77ZM11.7783 47V41.72H9.98828V40.48H15.0483V41.72H13.2583V47H11.7783ZM16.0649 47V40.48H17.6749L18.7249 43.38C18.7916 43.5667 18.8549 43.7633 18.9149 43.97C18.9749 44.1767 19.0383 44.38 19.1049 44.58H19.1449C19.2116 44.38 19.2716 44.1767 19.3249 43.97C19.3849 43.7633 19.4483 43.5667 19.5149 43.38L20.5449 40.48H22.1449V47H20.8049V44.61C20.8049 44.3967 20.8149 44.16 20.8349 43.9C20.8616 43.6333 20.8883 43.3667 20.9149 43.1C20.9483 42.8333 20.9749 42.5967 20.9949 42.39H20.9549L20.4249 43.94L19.4949 46.43H18.6849L17.7549 43.94L17.2349 42.39H17.1949C17.2216 42.5967 17.2483 42.8333 17.2749 43.1C17.3016 43.3667 17.3249 43.6333 17.3449 43.9C17.3716 44.16 17.3849 44.3967 17.3849 44.61V47H16.0649ZM23.6821 47V40.48H25.1521V45.76H27.7321V47H23.6821Z" fill="white"/>
<path d="M2.96905 33.3014L0 0H32.6247L29.6525 33.2961L16.2924 37L2.96905 33.3014Z" fill="#E44D26"/>
<path d="M16.3124 34.1689L27.108 31.176L29.6479 2.72289H16.3124V34.1689Z" fill="#F16529"/>
<path d="M16.3124 15.0739H10.9078L10.5345 10.8915H16.3124V6.80719H16.2982H6.07094L6.1687 7.90294L7.17254 19.1581H16.3124V15.0739Z" fill="#EBEBEB"/>
<path d="M16.3124 25.6812L16.2945 25.6859L11.7458 24.4577L11.455 21.2003H9.24469H7.35503L7.92723 27.6132L16.2936 29.9357L16.3124 29.9305V25.6812Z" fill="#EBEBEB"/>
<path d="M16.2982 15.0739V19.1581H21.3276L20.8535 24.4551L16.2982 25.6846V29.9338L24.6712 27.6132L24.7327 26.9232L25.6924 16.1706L25.7921 15.0739H24.6915H16.2982Z" fill="white"/>
<path d="M16.2982 6.80719V9.34389V10.8815V10.8915H26.1506H26.1637L26.2457 9.97348L26.4317 7.90294L26.5294 6.80719H16.2982Z" fill="white"/>
</svg>
