<svg width="28" height="50" viewBox="0 0 28 50" fill="none" xmlns="http://www.w3.org/2000/svg">
<path d="M5.26 47.12C4.76667 47.12 4.35 47.0233 4.01 46.83C3.67 46.63 3.38667 46.3333 3.16 45.94L4.16 45.2C4.28 45.42 4.42 45.5833 4.58 45.69C4.74 45.7967 4.90333 45.85 5.07 45.85C5.33667 45.85 5.53667 45.77 5.67 45.61C5.81 45.4433 5.88 45.1433 5.88 44.71V40.48H7.35V44.83C7.35 45.25 7.27667 45.6333 7.13 45.98C6.98333 46.3267 6.75333 46.6033 6.44 46.81C6.13333 47.0167 5.74 47.12 5.26 47.12ZM9.98789 47.12C9.53456 47.12 9.17456 46.9767 8.90789 46.69C8.64122 46.3967 8.50789 46.04 8.50789 45.62C8.50789 45.1 8.72789 44.6933 9.16789 44.4C9.60789 44.1067 10.3179 43.91 11.2979 43.81C11.2846 43.59 11.2179 43.4167 11.0979 43.29C10.9846 43.1567 10.7912 43.09 10.5179 43.09C10.3112 43.09 10.1012 43.13 9.88789 43.21C9.67456 43.29 9.44789 43.4 9.20789 43.54L8.67789 42.57C8.99122 42.3767 9.32456 42.22 9.67789 42.1C10.0379 41.98 10.4112 41.92 10.7979 41.92C11.4312 41.92 11.9179 42.1033 12.2579 42.47C12.5979 42.8367 12.7679 43.4 12.7679 44.16V47H11.5679L11.4679 46.49H11.4279C11.2212 46.6767 10.9979 46.83 10.7579 46.95C10.5246 47.0633 10.2679 47.12 9.98789 47.12ZM10.4879 45.98C10.6546 45.98 10.7979 45.9433 10.9179 45.87C11.0446 45.79 11.1712 45.6867 11.2979 45.56V44.69C10.7779 44.7567 10.4179 44.8633 10.2179 45.01C10.0179 45.15 9.91789 45.3167 9.91789 45.51C9.91789 45.67 9.96789 45.79 10.0679 45.87C10.1746 45.9433 10.3146 45.98 10.4879 45.98ZM15.1513 47L13.4813 42.04H14.9613L15.6013 44.38C15.668 44.6267 15.7313 44.88 15.7913 45.14C15.858 45.3933 15.9247 45.65 15.9913 45.91H16.0313C16.0913 45.65 16.1513 45.3933 16.2113 45.14C16.278 44.88 16.3447 44.6267 16.4113 44.38L17.0613 42.04H18.4713L16.8513 47H15.1513ZM20.3004 47.12C19.8471 47.12 19.4871 46.9767 19.2204 46.69C18.9537 46.3967 18.8204 46.04 18.8204 45.62C18.8204 45.1 19.0404 44.6933 19.4804 44.4C19.9204 44.1067 20.6304 43.91 21.6104 43.81C21.5971 43.59 21.5304 43.4167 21.4104 43.29C21.2971 43.1567 21.1037 43.09 20.8304 43.09C20.6237 43.09 20.4137 43.13 20.2004 43.21C19.9871 43.29 19.7604 43.4 19.5204 43.54L18.9904 42.57C19.3037 42.3767 19.6371 42.22 19.9904 42.1C20.3504 41.98 20.7237 41.92 21.1104 41.92C21.7437 41.92 22.2304 42.1033 22.5704 42.47C22.9104 42.8367 23.0804 43.4 23.0804 44.16V47H21.8804L21.7804 46.49H21.7404C21.5337 46.6767 21.3104 46.83 21.0704 46.95C20.8371 47.0633 20.5804 47.12 20.3004 47.12ZM20.8004 45.98C20.9671 45.98 21.1104 45.9433 21.2304 45.87C21.3571 45.79 21.4837 45.6867 21.6104 45.56V44.69C21.0904 44.7567 20.7304 44.8633 20.5304 45.01C20.3304 45.15 20.2304 45.3167 20.2304 45.51C20.2304 45.67 20.2804 45.79 20.3804 45.87C20.4871 45.9433 20.6271 45.98 20.8004 45.98Z" fill="white"/>
<path fill-rule="evenodd" clip-rule="evenodd" d="M8.78782 28.6136C8.78782 28.6136 7.37471 29.4359 9.79455 29.7137C12.727 30.0485 14.2248 30.0003 17.4552 29.3892C17.4552 29.3892 18.3057 29.9218 19.4929 30.3825C12.2491 33.4864 3.09885 30.2029 8.78782 28.6136ZM7.90232 24.563C7.90232 24.563 6.31702 25.7364 8.73901 25.9869C11.8715 26.3104 14.3442 26.3368 18.6256 25.513C18.6256 25.513 19.2167 26.1131 20.147 26.4409C11.39 29.0022 1.63694 26.6425 7.90232 24.563Z" fill="#3174B9"/>
<path fill-rule="evenodd" clip-rule="evenodd" d="M15.3638 17.6912C17.1495 19.7467 14.8957 21.5953 14.8957 21.5953C14.8957 21.5953 19.4279 19.2562 17.3463 16.326C15.4028 13.5946 13.912 12.2376 21.9815 7.55817C21.9815 7.55817 9.31451 10.7205 15.3638 17.6912Z" fill="#CA3132"/>
<path fill-rule="evenodd" clip-rule="evenodd" d="M24.944 31.6099C24.944 31.6099 25.9901 32.4724 23.7918 33.1393C19.6117 34.4054 6.39068 34.7872 2.71825 33.1897C1.39907 32.6151 3.87416 31.8186 4.65284 31.6504C5.46498 31.4748 5.92844 31.5068 5.92844 31.5068C4.46039 30.473 -3.56063 33.5371 1.85486 34.4162C16.6219 36.8105 28.7739 33.3382 24.944 31.6099ZM9.46766 20.3658C9.46766 20.3658 2.74342 21.9634 7.0868 22.5441C8.92133 22.7893 12.5756 22.7328 15.9823 22.4471C18.7655 22.2135 21.5592 21.7138 21.5592 21.7138C21.5592 21.7138 20.5786 22.1346 19.868 22.619C13.0385 24.4154 -0.152776 23.5787 3.64519 21.7424C6.8563 20.189 9.46766 20.3658 9.46766 20.3658ZM21.5313 27.1081C28.4731 23.5017 25.2635 20.0352 23.0226 20.5024C22.4748 20.6169 22.2289 20.7157 22.2289 20.7157C22.2289 20.7157 22.4333 20.3959 22.8219 20.2584C27.2543 18.7007 30.6625 24.8537 21.3928 27.2905C21.3925 27.2905 21.4993 27.1941 21.5313 27.1081Z" fill="#3174B9"/>
<path fill-rule="evenodd" clip-rule="evenodd" d="M17.3463 0C17.3463 0 21.19 3.84615 13.6996 9.75856C7.69269 14.5031 12.3301 17.2075 13.6978 20.2986C10.1908 17.135 7.61841 14.3496 9.34397 11.7579C11.8774 7.9535 18.8972 6.10854 17.3463 0Z" fill="#CA3132"/>
<path fill-rule="evenodd" clip-rule="evenodd" d="M10.1506 36.8839C16.8128 37.3099 27.0456 36.6472 27.2884 33.4941C27.2884 33.4941 26.8224 34.6893 21.7817 35.6374C16.0946 36.708 9.07908 36.5834 4.91956 35.8968C4.91956 35.8968 5.7719 36.6021 10.1506 36.8839Z" fill="#3174B9"/>
</svg>
