<svg width="138" height="28" viewBox="0 0 138 28" fill="none" xmlns="http://www.w3.org/2000/svg">
<rect width="138" height="28" rx="3" fill="#2867B2"/>
<rect x="89" y="3" width="20" height="20" rx="2" fill="white"/>
<path d="M95.15 20H92.175V10.6375H95.15V20ZM93.6625 9.325C92.7 9.325 92 8.625 92 7.6625C92 6.7 92.7875 6 93.6625 6C94.625 6 95.325 6.7 95.325 7.6625C95.325 8.625 94.625 9.325 93.6625 9.325ZM106 20H103.025V14.925C103.025 13.4375 102.412 13 101.537 13C100.662 13 99.7875 13.7 99.7875 15.0125V20H96.8125V10.6375H99.6125V11.95C99.875 11.3375 100.925 10.375 102.412 10.375C104.075 10.375 105.825 11.3375 105.825 14.225V20H106Z" fill="#2867B2"/>
<path d="M24.617 21V7.308H27.704V18.396H33.122V21H24.617ZM35.2341 21V10.584H38.3211V21H35.2341ZM36.7671 9.051C36.2491 9.051 35.8291 8.904 35.5071 8.61C35.1851 8.316 35.0241 7.924 35.0241 7.434C35.0241 6.944 35.1851 6.552 35.5071 6.258C35.8291 5.964 36.2491 5.817 36.7671 5.817C37.2851 5.817 37.7051 5.964 38.0271 6.258C38.3491 6.552 38.5101 6.944 38.5101 7.434C38.5101 7.924 38.3491 8.316 38.0271 8.61C37.7051 8.904 37.2851 9.051 36.7671 9.051ZM41.0379 21V10.584H43.5579L43.7679 11.907H43.8519C44.2999 11.487 44.7899 11.123 45.3219 10.815C45.8679 10.493 46.4909 10.332 47.1909 10.332C48.3249 10.332 49.1439 10.71 49.6479 11.466C50.1659 12.208 50.4249 13.23 50.4249 14.532V21H47.3379V14.931C47.3379 14.175 47.2329 13.657 47.0229 13.377C46.8269 13.097 46.5049 12.957 46.0569 12.957C45.6649 12.957 45.3289 13.048 45.0489 13.23C44.7689 13.398 44.4609 13.643 44.1249 13.965V21H41.0379ZM53.0554 21V6.279H56.0584V14.721H56.1424L59.4394 10.584H62.7994L59.1454 14.868L63.0724 21H59.7334L57.3814 16.947L56.0584 18.438V21H53.0554ZM68.6276 21.252C67.6336 21.252 66.7376 21.035 65.9396 20.601C65.1416 20.167 64.5116 19.544 64.0496 18.732C63.5876 17.92 63.3566 16.94 63.3566 15.792C63.3566 14.658 63.5876 13.685 64.0496 12.873C64.5256 12.061 65.1416 11.438 65.8976 11.004C66.6536 10.556 67.4446 10.332 68.2706 10.332C69.2646 10.332 70.0836 10.556 70.7276 11.004C71.3856 11.438 71.8756 12.033 72.1976 12.789C72.5336 13.531 72.7016 14.378 72.7016 15.33C72.7016 15.596 72.6876 15.862 72.6596 16.128C72.6316 16.38 72.6036 16.569 72.5756 16.695H66.3386C66.4786 17.451 66.7936 18.011 67.2836 18.375C67.7736 18.725 68.3616 18.9 69.0476 18.9C69.7896 18.9 70.5386 18.669 71.2946 18.207L72.3236 20.076C71.7916 20.44 71.1966 20.727 70.5386 20.937C69.8806 21.147 69.2436 21.252 68.6276 21.252ZM66.3176 14.658H70.0766C70.0766 14.084 69.9366 13.615 69.6566 13.251C69.3906 12.873 68.9496 12.684 68.3336 12.684C67.8576 12.684 67.4306 12.852 67.0526 13.188C66.6746 13.51 66.4296 14 66.3176 14.658ZM78.5517 21.252C77.2637 21.252 76.2277 20.769 75.4437 19.803C74.6737 18.823 74.2887 17.486 74.2887 15.792C74.2887 14.658 74.4917 13.685 74.8977 12.873C75.3177 12.047 75.8567 11.417 76.5147 10.983C77.1867 10.549 77.8867 10.332 78.6147 10.332C79.1887 10.332 79.6717 10.43 80.0637 10.626C80.4557 10.822 80.8267 11.088 81.1767 11.424L81.0507 9.828V6.279H84.1377V21H81.6177L81.4077 19.971H81.3237C80.9597 20.335 80.5327 20.643 80.0427 20.895C79.5527 21.133 79.0557 21.252 78.5517 21.252ZM79.3497 18.732C79.6857 18.732 79.9867 18.662 80.2527 18.522C80.5327 18.382 80.7987 18.137 81.0507 17.787V13.524C80.7847 13.272 80.4977 13.097 80.1897 12.999C79.8957 12.901 79.6087 12.852 79.3287 12.852C78.8387 12.852 78.4047 13.09 78.0267 13.566C77.6487 14.028 77.4597 14.756 77.4597 15.75C77.4597 16.772 77.6207 17.528 77.9427 18.018C78.2787 18.494 78.7477 18.732 79.3497 18.732Z" fill="white"/>
</svg>
