<svg width="55" height="50" viewBox="0 0 55 50" fill="none" xmlns="http://www.w3.org/2000/svg">
<path d="M11.77 47V40.48H13.38L14.43 43.38C14.4967 43.5667 14.56 43.7633 14.62 43.97C14.68 44.1767 14.7433 44.38 14.81 44.58H14.85C14.9167 44.38 14.9767 44.1767 15.03 43.97C15.09 43.7633 15.1533 43.5667 15.22 43.38L16.25 40.48H17.85V47H16.51V44.61C16.51 44.3967 16.52 44.16 16.54 43.9C16.5667 43.6333 16.5933 43.3667 16.62 43.1C16.6533 42.8333 16.68 42.5967 16.7 42.39H16.66L16.13 43.94L15.2 46.43H14.39L13.46 43.94L12.94 42.39H12.9C12.9267 42.5967 12.9533 42.8333 12.98 43.1C13.0067 43.3667 13.03 43.6333 13.05 43.9C13.0767 44.16 13.09 44.3967 13.09 44.61V47H11.77ZM19.8172 48.94C19.6705 48.94 19.5405 48.93 19.4272 48.91C19.3205 48.89 19.2172 48.8667 19.1172 48.84L19.3772 47.72C19.4239 47.7267 19.4772 47.7367 19.5372 47.75C19.5972 47.77 19.6539 47.78 19.7072 47.78C19.9539 47.78 20.1439 47.72 20.2772 47.6C20.4105 47.48 20.5105 47.3233 20.5772 47.13L20.6472 46.87L18.7372 42.04H20.2172L20.9272 44.17C21.0005 44.3967 21.0672 44.6267 21.1272 44.86C21.1872 45.0933 21.2505 45.3333 21.3172 45.58H21.3572C21.4105 45.3467 21.4639 45.1133 21.5172 44.88C21.5772 44.64 21.6372 44.4033 21.6972 44.17L22.2972 42.04H23.7072L21.9872 47.05C21.8339 47.4633 21.6639 47.81 21.4772 48.09C21.2905 48.3767 21.0639 48.59 20.7972 48.73C20.5372 48.87 20.2105 48.94 19.8172 48.94ZM26.592 47.12C26.1654 47.12 25.7387 47.04 25.312 46.88C24.892 46.72 24.5154 46.4867 24.182 46.18L25.022 45.17C25.2554 45.37 25.5154 45.5333 25.802 45.66C26.0887 45.7867 26.3654 45.85 26.632 45.85C26.9387 45.85 27.1654 45.7933 27.312 45.68C27.4654 45.5667 27.542 45.4133 27.542 45.22C27.542 45.0133 27.4554 44.8633 27.282 44.77C27.1154 44.67 26.8887 44.56 26.602 44.44L25.752 44.08C25.532 43.9867 25.322 43.8633 25.122 43.71C24.922 43.55 24.7587 43.3533 24.632 43.12C24.5054 42.8867 24.442 42.6133 24.442 42.3C24.442 41.94 24.5387 41.6133 24.732 41.32C24.932 41.0267 25.2054 40.7933 25.552 40.62C25.9054 40.4467 26.3087 40.36 26.762 40.36C27.1354 40.36 27.5087 40.4333 27.882 40.58C28.2554 40.7267 28.582 40.94 28.862 41.22L28.112 42.15C27.8987 41.9833 27.6854 41.8567 27.472 41.77C27.2587 41.6767 27.022 41.63 26.762 41.63C26.5087 41.63 26.3054 41.6833 26.152 41.79C26.0054 41.89 25.932 42.0333 25.932 42.22C25.932 42.42 26.0254 42.57 26.212 42.67C26.4054 42.77 26.642 42.8767 26.922 42.99L27.762 43.33C28.1554 43.49 28.4687 43.71 28.702 43.99C28.9354 44.27 29.052 44.64 29.052 45.1C29.052 45.46 28.9554 45.7933 28.762 46.1C28.5687 46.4067 28.2887 46.6533 27.922 46.84C27.5554 47.0267 27.112 47.12 26.592 47.12ZM32.8087 45.92C33.2553 45.92 33.6087 45.7267 33.8687 45.34C34.1287 44.9467 34.2587 44.4033 34.2587 43.71C34.2587 43.0567 34.1287 42.5467 33.8687 42.18C33.6087 41.8133 33.2553 41.63 32.8087 41.63C32.362 41.63 32.0087 41.8133 31.7487 42.18C31.4887 42.5467 31.3587 43.0567 31.3587 43.71C31.3587 44.4033 31.4887 44.9467 31.7487 45.34C32.0087 45.7267 32.362 45.92 32.8087 45.92ZM34.9587 48.82C34.272 48.82 33.6887 48.65 33.2087 48.31C32.7287 47.9767 32.372 47.5567 32.1387 47.05C31.4453 46.9033 30.8887 46.54 30.4687 45.96C30.0553 45.38 29.8487 44.63 29.8487 43.71C29.8487 42.9967 29.972 42.3933 30.2187 41.9C30.472 41.4 30.8187 41.02 31.2587 40.76C31.7053 40.4933 32.222 40.36 32.8087 40.36C33.3953 40.36 33.9087 40.4933 34.3487 40.76C34.7953 41.02 35.142 41.4 35.3887 41.9C35.642 42.4 35.7687 43.0033 35.7687 43.71C35.7687 44.5833 35.582 45.3067 35.2087 45.88C34.8353 46.4467 34.332 46.82 33.6987 47C33.852 47.2267 34.0587 47.39 34.3187 47.49C34.5853 47.59 34.8553 47.64 35.1287 47.64C35.2687 47.64 35.3987 47.6267 35.5187 47.6C35.6453 47.58 35.7553 47.5567 35.8487 47.53L36.1087 48.6C35.9887 48.66 35.8287 48.71 35.6287 48.75C35.4353 48.7967 35.212 48.82 34.9587 48.82ZM36.9946 47V40.48H38.4646V45.76H41.0446V47H36.9946Z" fill="white"/>
<path d="M13.0982 33.7072H10.996C10.9217 30.1588 10.717 26.8229 10.3822 23.697H10.3636L7.16293 33.7072H5.56241L2.38087 23.697H2.36259C2.12658 26.6982 1.9779 30.0349 1.91615 33.7072H0C0.123492 29.2415 0.433846 25.055 0.929844 21.1472H3.53536L6.56781 30.3761H6.5865L9.63763 21.1472H12.1306C12.6766 25.7245 12.9991 29.9114 13.0982 33.7072ZM22.2151 24.4404C21.3592 29.0852 20.2299 32.4601 18.8284 34.5667C17.7365 36.1884 16.5402 37 15.2374 37C14.8901 37 14.4615 36.8952 13.9538 36.6872V35.5673C14.202 35.603 14.4932 35.6233 14.8279 35.6233C15.4365 35.6233 15.9256 35.4559 16.2985 35.1204C16.7445 34.7117 16.9675 34.2523 16.9675 33.7441C16.9675 33.3956 16.7937 32.6831 16.4467 31.6041L14.1398 24.44H16.205L17.8608 29.7981C18.2329 31.0147 18.3881 31.8641 18.3259 32.3479C19.2314 29.9297 19.8639 27.2929 20.2242 24.4396H22.2151V24.4404Z" fill="#5D87A1"/>
<path d="M50.1978 33.7072H44.2263V21.1472H46.2351V32.1611H50.1978V33.7072ZM42.6631 34.0106L40.3542 32.8712C40.5589 32.703 40.7547 32.521 40.931 32.3102C41.9124 31.1573 42.4019 29.4524 42.4019 27.1942C42.4019 23.0389 40.7714 20.9603 37.509 20.9603C35.9093 20.9603 34.6614 21.4876 33.7689 22.5425C32.7883 23.6962 32.2988 25.395 32.2988 27.641C32.2988 29.8489 32.7326 31.4685 33.6007 32.4958C34.3949 33.4265 35.592 33.8924 37.1929 33.8924C37.7901 33.8924 38.3381 33.8193 38.8373 33.6718L41.8434 35.4218L42.6631 34.0106ZM35.1834 31.1939C34.6748 30.3757 34.4205 29.062 34.4205 27.2507C34.4205 24.0882 35.3812 22.5052 37.3047 22.5052C38.3101 22.5052 39.0469 22.8838 39.5182 23.6393C40.0259 24.4587 40.2815 25.7606 40.2815 27.5468C40.2815 30.7352 39.3199 32.3297 37.3977 32.3297C36.3919 32.3301 35.655 31.9527 35.1834 31.1939ZM31.4234 30.2258C31.4234 31.2909 31.0326 32.1647 30.2518 32.8492C29.4702 33.5309 28.4222 33.8725 27.1089 33.8725C25.8804 33.8725 24.6894 33.4801 23.5365 32.6993L24.0764 31.6208C25.0684 32.1176 25.9666 32.3646 26.7729 32.3646C27.5297 32.3646 28.1212 32.1968 28.5501 31.8641C28.9787 31.5302 29.2342 31.0618 29.2342 30.4696C29.2342 29.7233 28.7139 29.0856 27.7592 28.5514C26.8789 28.068 25.1184 27.0573 25.1184 27.0573C24.1642 26.3618 23.6864 25.6152 23.6864 24.3852C23.6864 23.3672 24.0427 22.5454 24.7556 21.9202C25.4694 21.2926 26.3903 20.9798 27.5192 20.9798C28.685 20.9798 29.7448 21.2922 30.6995 21.9105L30.2153 22.9894C29.3987 22.6425 28.5928 22.469 27.7978 22.469C27.154 22.469 26.6567 22.6238 26.311 22.9345C25.9625 23.2441 25.7476 23.6401 25.7476 24.126C25.7476 24.8686 26.279 25.5145 27.2596 26.0592C28.1516 26.5434 29.9561 27.5716 29.9561 27.5716C30.9347 28.2658 31.4234 29.0055 31.4234 30.2258Z" fill="#F8981D"/>
<path d="M52.7196 16.9403C51.505 16.9094 50.5646 17.0317 49.7753 17.3656C49.5474 17.4566 49.185 17.4566 49.1534 17.7446C49.2764 17.8665 49.2907 18.0631 49.3975 18.2313C49.5795 18.5347 49.8967 18.943 50.1864 19.1559C50.5045 19.3996 50.8237 19.6409 51.1585 19.8533C51.7487 20.2185 52.4178 20.431 52.993 20.795C53.3281 21.0066 53.6612 21.2804 53.9968 21.5083C54.1617 21.6297 54.2673 21.8268 54.4814 21.9027V21.8564C54.3741 21.7199 54.3437 21.5225 54.2385 21.3706L53.7827 20.931C53.3423 20.3396 52.7951 19.8233 52.2049 19.3992C51.7191 19.0645 50.6564 18.6095 50.4594 18.0497L50.4285 18.0188C50.7624 17.9876 51.1585 17.8665 51.4757 17.7735C51.992 17.6374 52.4629 17.6683 52.9926 17.5322C53.2363 17.4712 53.478 17.3949 53.7226 17.3197V17.1828C53.4479 16.9094 53.2521 16.5463 52.9633 16.2879C52.1907 15.6205 51.3392 14.9677 50.4594 14.4213C49.9881 14.1171 49.3821 13.9213 48.8804 13.6625C48.6996 13.5711 48.3949 13.526 48.2885 13.3741C48.0163 13.0402 47.8632 12.6006 47.6658 12.2054C47.2271 11.3714 46.8009 10.446 46.4223 9.56412C46.1485 8.97266 45.982 8.38201 45.6481 7.83483C44.0841 5.25532 42.3857 3.69298 39.7753 2.15949C39.2143 1.8402 38.5469 1.70412 37.834 1.53675L36.6953 1.47663C36.4524 1.3702 36.2091 1.08138 35.997 0.944885C35.131 0.398921 32.9012 -0.784405 32.2642 0.777927C31.854 1.76545 32.8711 2.73633 33.2205 3.2372C33.4784 3.58493 33.8128 3.98059 33.9931 4.37544C34.1 4.63339 34.13 4.90718 34.2369 5.17976C34.4798 5.84759 34.7069 6.59057 35.0262 7.21371C35.1927 7.53138 35.3743 7.8653 35.5871 8.1529C35.709 8.32108 35.9211 8.39542 35.9674 8.66962C35.7557 8.97185 35.7391 9.42803 35.6176 9.80745C35.0716 11.5221 35.2849 13.6463 36.0588 14.9064C36.3009 15.2858 36.8785 16.121 37.6512 15.8009C38.3352 15.5279 38.1837 14.663 38.3803 13.9046C38.4254 13.7214 38.3958 13.6012 38.4868 13.4809V13.5106C38.6984 13.9351 38.9121 14.3441 39.1083 14.7699C39.5791 15.5128 40.3989 16.2871 41.0817 16.8018C41.4453 17.0764 41.7333 17.546 42.1887 17.7138V17.6683H42.1586C42.0664 17.5322 41.9315 17.4712 41.8105 17.3656C41.5367 17.0922 41.2336 16.7583 41.0212 16.4553C40.385 15.6051 39.822 14.6638 39.3224 13.6926C39.0778 13.2213 38.867 12.7063 38.67 12.2358C38.5782 12.0543 38.5782 11.7805 38.4258 11.6891C38.1975 12.0226 37.8648 12.3114 37.6983 12.7201C37.4095 13.3737 37.3794 14.1776 37.2722 15.0136L37.2124 15.0428C36.729 14.9214 36.5609 14.4213 36.3772 13.9968C35.9227 12.9187 35.8463 11.1882 36.2408 9.94434C36.3464 9.62627 36.8034 8.62453 36.621 8.32148C36.5296 8.03103 36.2257 7.8657 36.0592 7.637C35.8634 7.34939 35.6489 6.98542 35.5124 6.66613C35.1484 5.81671 34.9652 4.8755 34.5732 4.02649C34.39 3.63083 34.0719 3.22136 33.8144 2.85698C33.5252 2.4475 33.2071 2.15909 32.9784 1.67365C32.9028 1.50669 32.7968 1.23371 32.9183 1.05213C32.9479 0.930261 33.0097 0.884764 33.1307 0.854297C33.3273 0.688152 33.8891 0.899387 34.0862 0.990787C34.6488 1.21827 35.1192 1.43073 35.5888 1.74921C35.8012 1.90154 36.0291 2.18996 36.3017 2.26592H36.621C37.1056 2.37154 37.652 2.29517 38.1082 2.43247C38.9121 2.69083 39.6404 3.06984 40.2936 3.4789C42.2813 4.73941 43.9204 6.53045 45.027 8.66962C45.2085 9.01816 45.2857 9.33745 45.4515 9.70102C45.7711 10.4452 46.1664 11.204 46.4837 11.9324C46.8025 12.6453 47.1064 13.3733 47.5618 13.9655C47.7889 14.284 48.7012 14.451 49.1103 14.6179C49.4129 14.754 49.8842 14.8751 50.1571 15.042C50.6734 15.3601 51.1877 15.7253 51.6732 16.0751C51.9149 16.257 52.6745 16.6365 52.7196 16.9403ZM37.2401 3.7527C37.0306 3.75052 36.8217 3.7762 36.619 3.82907V3.85953H36.6482C36.7705 4.10205 36.9829 4.27022 37.1344 4.48187C37.2567 4.72519 37.3627 4.96649 37.4826 5.20941L37.5118 5.17935C37.7259 5.02783 37.8323 4.78491 37.8323 4.42053C37.7401 4.31328 37.7259 4.20848 37.6491 4.10205C37.5598 3.95012 37.3627 3.87456 37.2401 3.7527Z" fill="#5D87A1"/>
<path d="M54.1649 33.7051H54.4793V32.1664H54.0077L53.623 33.2164L53.205 32.1664H52.7509V33.7051H53.0478V32.5344H53.0645L53.5024 33.7051H53.7286L54.1649 32.5344V33.7051ZM51.6321 33.7051H51.9648V32.4272H52.4003V32.166H51.1784V32.4272H51.6313L51.6321 33.7051Z" fill="#F8981D"/>
</svg>
