<svg width="38" height="50" viewBox="0 0 38 50" fill="none" xmlns="http://www.w3.org/2000/svg">
<path d="M2.89957 47.0025L0.929573 40.4825H2.48957L3.26957 43.5225C3.36957 43.8758 3.45624 44.2225 3.52957 44.5625C3.60957 44.9025 3.69957 45.2525 3.79957 45.6125H3.83957C3.93291 45.2525 4.01957 44.9025 4.09957 44.5625C4.17957 44.2225 4.26624 43.8758 4.35957 43.5225L5.12957 40.4825H6.62957L4.66957 47.0025H2.89957ZM9.21856 47.1225C8.79189 47.1225 8.36522 47.0425 7.93856 46.8825C7.51856 46.7225 7.14189 46.4892 6.80856 46.1825L7.64856 45.1725C7.88189 45.3725 8.14189 45.5358 8.42856 45.6625C8.71522 45.7892 8.99189 45.8525 9.25856 45.8525C9.56522 45.8525 9.79189 45.7958 9.93856 45.6825C10.0919 45.5692 10.1686 45.4158 10.1686 45.2225C10.1686 45.0158 10.0819 44.8658 9.90856 44.7725C9.74189 44.6725 9.51522 44.5625 9.22856 44.4425L8.37856 44.0825C8.15856 43.9892 7.94856 43.8658 7.74856 43.7125C7.54856 43.5525 7.38522 43.3558 7.25856 43.1225C7.13189 42.8892 7.06856 42.6158 7.06856 42.3025C7.06856 41.9425 7.16522 41.6158 7.35856 41.3225C7.55856 41.0292 7.83189 40.7958 8.17856 40.6225C8.53189 40.4492 8.93522 40.3625 9.38856 40.3625C9.76189 40.3625 10.1352 40.4358 10.5086 40.5825C10.8819 40.7292 11.2086 40.9425 11.4886 41.2225L10.7386 42.1525C10.5252 41.9858 10.3119 41.8592 10.0986 41.7725C9.88522 41.6792 9.64856 41.6325 9.38856 41.6325C9.13522 41.6325 8.93189 41.6858 8.77856 41.7925C8.63189 41.8925 8.55856 42.0358 8.55856 42.2225C8.55856 42.4225 8.65189 42.5725 8.83856 42.6725C9.03189 42.7725 9.26856 42.8792 9.54856 42.9925L10.3886 43.3325C10.7819 43.4925 11.0952 43.7125 11.3286 43.9925C11.5619 44.2725 11.6786 44.6425 11.6786 45.1025C11.6786 45.4625 11.5819 45.7958 11.3886 46.1025C11.1952 46.4092 10.9152 46.6558 10.5486 46.8425C10.1819 47.0292 9.73856 47.1225 9.21856 47.1225ZM17.5072 47.1225C16.9605 47.1225 16.4572 46.9958 15.9972 46.7425C15.5372 46.4892 15.1672 46.1158 14.8872 45.6225C14.6138 45.1225 14.4772 44.5092 14.4772 43.7825C14.4772 43.0625 14.6172 42.4492 14.8972 41.9425C15.1838 41.4292 15.5605 41.0392 16.0272 40.7725C16.5005 40.4992 17.0105 40.3625 17.5572 40.3625C17.9772 40.3625 18.3538 40.4492 18.6872 40.6225C19.0205 40.7892 19.2972 40.9858 19.5172 41.2125L18.7372 42.1525C18.5705 41.9992 18.3938 41.8758 18.2072 41.7825C18.0272 41.6825 17.8205 41.6325 17.5872 41.6325C17.2938 41.6325 17.0238 41.7158 16.7772 41.8825C16.5372 42.0492 16.3438 42.2892 16.1972 42.6025C16.0572 42.9158 15.9872 43.2925 15.9872 43.7325C15.9872 44.3992 16.1305 44.9192 16.4172 45.2925C16.7038 45.6658 17.0872 45.8525 17.5672 45.8525C17.8338 45.8525 18.0705 45.7925 18.2772 45.6725C18.4905 45.5525 18.6772 45.4092 18.8372 45.2425L19.6172 46.1625C19.0705 46.8025 18.3672 47.1225 17.5072 47.1225ZM22.6175 47.1225C22.1975 47.1225 21.8008 47.0225 21.4275 46.8225C21.0608 46.6158 20.7641 46.3192 20.5375 45.9325C20.3108 45.5392 20.1975 45.0692 20.1975 44.5225C20.1975 43.9692 20.3108 43.4992 20.5375 43.1125C20.7641 42.7258 21.0608 42.4325 21.4275 42.2325C21.8008 42.0258 22.1975 41.9225 22.6175 41.9225C23.0375 41.9225 23.4308 42.0258 23.7975 42.2325C24.1641 42.4325 24.4608 42.7258 24.6875 43.1125C24.9141 43.4992 25.0275 43.9692 25.0275 44.5225C25.0275 45.0692 24.9141 45.5392 24.6875 45.9325C24.4608 46.3192 24.1641 46.6158 23.7975 46.8225C23.4308 47.0225 23.0375 47.1225 22.6175 47.1225ZM22.6175 45.9325C22.9175 45.9325 23.1441 45.8058 23.2975 45.5525C23.4508 45.2925 23.5275 44.9492 23.5275 44.5225C23.5275 44.0892 23.4508 43.7458 23.2975 43.4925C23.1441 43.2392 22.9175 43.1125 22.6175 43.1125C22.3108 43.1125 22.0808 43.2392 21.9275 43.4925C21.7808 43.7458 21.7075 44.0892 21.7075 44.5225C21.7075 44.9492 21.7808 45.2925 21.9275 45.5525C22.0808 45.8058 22.3108 45.9325 22.6175 45.9325ZM27.8043 47.1225C27.191 47.1225 26.6977 46.8925 26.3243 46.4325C25.9577 45.9658 25.7743 45.3292 25.7743 44.5225C25.7743 43.9825 25.871 43.5192 26.0643 43.1325C26.2643 42.7392 26.521 42.4392 26.8343 42.2325C27.1543 42.0258 27.4877 41.9225 27.8343 41.9225C28.1077 41.9225 28.3377 41.9692 28.5243 42.0625C28.711 42.1558 28.8877 42.2825 29.0543 42.4425L28.9943 41.6825V39.9925H30.4643V47.0025H29.2643L29.1643 46.5125H29.1243C28.951 46.6858 28.7477 46.8325 28.5143 46.9525C28.281 47.0658 28.0443 47.1225 27.8043 47.1225ZM28.1843 45.9225C28.3443 45.9225 28.4877 45.8892 28.6143 45.8225C28.7477 45.7558 28.8743 45.6392 28.9943 45.4725V43.4425C28.8677 43.3225 28.731 43.2392 28.5843 43.1925C28.4443 43.1458 28.3077 43.1225 28.1743 43.1225C27.941 43.1225 27.7343 43.2358 27.5543 43.4625C27.3743 43.6825 27.2843 44.0292 27.2843 44.5025C27.2843 44.9892 27.361 45.3492 27.5143 45.5825C27.6743 45.8092 27.8977 45.9225 28.1843 45.9225ZM33.9868 47.1225C33.5134 47.1225 33.0868 47.0192 32.7068 46.8125C32.3268 46.6058 32.0268 46.3092 31.8068 45.9225C31.5868 45.5358 31.4768 45.0692 31.4768 44.5225C31.4768 43.9825 31.5868 43.5192 31.8068 43.1325C32.0334 42.7458 32.3268 42.4492 32.6868 42.2425C33.0468 42.0292 33.4234 41.9225 33.8168 41.9225C34.2901 41.9225 34.6801 42.0292 34.9868 42.2425C35.3001 42.4492 35.5334 42.7325 35.6868 43.0925C35.8468 43.4458 35.9268 43.8492 35.9268 44.3025C35.9268 44.4292 35.9201 44.5558 35.9068 44.6825C35.8934 44.8025 35.8801 44.8925 35.8668 44.9525H32.8968C32.9634 45.3125 33.1134 45.5792 33.3468 45.7525C33.5801 45.9192 33.8601 46.0025 34.1868 46.0025C34.5401 46.0025 34.8968 45.8925 35.2568 45.6725L35.7468 46.5625C35.4934 46.7358 35.2101 46.8725 34.8968 46.9725C34.5834 47.0725 34.2801 47.1225 33.9868 47.1225ZM32.8868 43.9825H34.6768C34.6768 43.7092 34.6101 43.4858 34.4768 43.3125C34.3501 43.1325 34.1401 43.0425 33.8468 43.0425C33.6201 43.0425 33.4168 43.1225 33.2368 43.2825C33.0568 43.4358 32.9401 43.6692 32.8868 43.9825Z" fill="white"/>
<path d="M35.891 3.92185L28.2308 0.233061C27.7979 0.0246085 27.3108 -0.0440695 26.8371 0.0365454C26.3634 0.11716 25.9265 0.343075 25.5869 0.683002L0.505297 23.5521C0.346097 23.6974 0.218947 23.8743 0.131944 24.0715C0.0449418 24.2687 0 24.4818 0 24.6974C0 24.9129 0.0449418 25.1261 0.131944 25.3233C0.218947 25.5205 0.346097 25.6974 0.505297 25.8427L2.55422 27.702C2.82182 27.9452 3.16601 28.0872 3.52725 28.1035C3.8885 28.1198 4.24408 28.0093 4.53249 27.7912L34.7383 4.87752C34.9667 4.7045 35.2388 4.59864 35.5241 4.57187C35.8094 4.54511 36.0965 4.59849 36.3531 4.72602C36.6096 4.85354 36.8255 5.05014 36.9765 5.2937C37.1274 5.53726 37.2074 5.81812 37.2074 6.10465V6.0154C37.2073 5.57792 37.0836 5.14936 36.8508 4.77901C36.6179 4.40866 36.2852 4.11155 35.891 3.92185Z" fill="#0065A9"/>
<path d="M35.891 33.0753L28.2308 36.7641C27.7979 36.9725 27.3108 37.0412 26.8371 36.9606C26.3634 36.88 25.9265 36.6541 25.5869 36.3141L0.505297 13.4451C0.346097 13.2998 0.218947 13.1229 0.131944 12.9257C0.0449418 12.7285 0 12.5153 0 12.2997C0 12.0842 0.0449418 11.871 0.131944 11.6738C0.218947 11.4766 0.346097 11.2997 0.505297 11.1544L2.55422 9.29516C2.82182 9.05195 3.16601 8.90992 3.52725 8.89362C3.8885 8.87732 4.24408 8.9878 4.53249 9.20592L34.7383 32.1196C34.9667 32.2926 35.2388 32.3985 35.5241 32.4253C35.8094 32.452 36.0965 32.3987 36.3531 32.2711C36.6096 32.1436 36.8255 31.947 36.9765 31.7034C37.1274 31.4599 37.2074 31.179 37.2074 30.8925V30.9817C37.2073 31.4192 37.0836 31.8478 36.8508 32.2181C36.6179 32.5885 36.2852 32.8856 35.891 33.0753Z" fill="#007ACC"/>
<path d="M28.2308 36.7678C27.7979 36.9763 27.3108 37.0449 26.8371 36.9643C26.3634 36.8837 25.9265 36.6578 25.5869 36.3178C25.7773 36.5085 26.0199 36.6384 26.2841 36.691C26.5483 36.7436 26.8222 36.7167 27.0711 36.6135C27.3199 36.5104 27.5326 36.3357 27.6821 36.1117C27.8316 35.8876 27.9113 35.6241 27.911 35.3548V1.6424C27.9113 1.37301 27.8316 1.10958 27.6821 0.885491C27.5326 0.661405 27.3199 0.486742 27.0711 0.38361C26.8222 0.280478 26.5483 0.253522 26.2841 0.306159C26.0199 0.358795 25.7773 0.488648 25.5869 0.679285C25.9265 0.339358 26.3634 0.113454 26.8371 0.0328395C27.3108 -0.0477753 27.7979 0.0208913 28.2308 0.229343L35.891 3.91443C36.2852 4.10412 36.6179 4.40122 36.8508 4.77157C37.0836 5.14192 37.2073 5.57049 37.2074 6.00797V30.9855C37.2073 31.4229 37.0836 31.8515 36.8508 32.2218C36.6179 32.5922 36.2852 32.8893 35.891 33.079L28.2308 36.7678Z" fill="#1F9CF0"/>
<g opacity="0.25">
<path d="M26.3678 36.8385C26.6657 36.9561 26.9848 37.0105 27.3049 36.9983C27.6249 36.9862 27.939 36.9077 28.2271 36.7678L35.8836 33.0827C36.2778 32.893 36.6104 32.5959 36.8433 32.2256C37.0762 31.8552 37.1998 31.4267 37.1999 30.9892V6.00797C37.1998 5.57049 37.0762 5.14192 36.8433 4.77157C36.6104 4.40122 36.2778 4.10412 35.8836 3.91443L28.2271 0.229342C27.7947 0.0211943 27.3083 -0.0473143 26.8352 0.0333037C26.3622 0.113922 25.9259 0.339672 25.5869 0.679284L10.9321 14.0661L4.54737 9.23194C4.25924 9.01313 3.90351 8.90223 3.54207 8.91853C3.18064 8.93484 2.83636 9.07732 2.5691 9.3212L0.520175 11.1805C0.360975 11.3258 0.233813 11.5027 0.14681 11.6999C0.0598079 11.8971 0.0148774 12.1102 0.0148774 12.3258C0.0148774 12.5413 0.0598079 12.7545 0.14681 12.9517C0.233813 13.1489 0.360975 13.3258 0.520175 13.4711L6.04222 18.4986L0.505297 23.5484C0.346097 23.6937 0.218947 23.8706 0.131944 24.0678C0.0449418 24.265 0 24.4781 0 24.6937C0 24.9092 0.0449418 25.1224 0.131944 25.3196C0.218947 25.5168 0.346097 25.6937 0.505297 25.839L2.55422 27.6983C2.82148 27.9421 3.16577 28.0846 3.52721 28.1009C3.88864 28.1172 4.24436 28.0063 4.53249 27.7875L10.9172 22.9534L25.572 36.3402C25.8004 36.5589 26.0713 36.7285 26.3678 36.8385ZM27.8924 10.0649L16.7739 18.4986L27.8998 26.9397L27.8924 10.0649Z" fill="url(#paint0_linear_22_41)"/>
</g>
<defs>
<linearGradient id="paint0_linear_22_41" x1="18.5923" y1="0.00251337" x2="18.5923" y2="36.9946" gradientUnits="userSpaceOnUse">
<stop stop-color="white"/>
<stop offset="1" stop-color="white" stop-opacity="0"/>
</linearGradient>
</defs>
</svg>
